solid Object01
  facet normal 0.000000e+000 1.000000e+000 -1.192488e-008
    outer loop
      vertex 0.000000e+000 0.000000e+000 0.000000e+000
      vertex -6.556708e-007 1.788732e-007 1.500000e+001
      vertex 1.500000e+001 0.000000e+000 0.000000e+000
    endloop
  endfacet
  facet normal 0.000000e+000 1.000000e+000 -1.192488e-008
    outer loop
      vertex 0.000000e+000 0.000000e+000 0.000000e+000
      vertex -1.500000e+001 -1.563759e-014 -1.311342e-006
      vertex -6.556708e-007 1.788732e-007 1.500000e+001
    endloop
  endfacet
  facet normal 0.000000e+000 1.000000e+000 -1.192488e-008
    outer loop
      vertex 0.000000e+000 0.000000e+000 0.000000e+000
      vertex 1.788732e-007 -1.788732e-007 -1.500000e+001
      vertex -1.500000e+001 -1.563759e-014 -1.311342e-006
    endloop
  endfacet
  facet normal 0.000000e+000 1.000000e+000 -1.192488e-008
    outer loop
      vertex 0.000000e+000 0.000000e+000 0.000000e+000
      vertex 1.500000e+001 0.000000e+000 0.000000e+000
      vertex 1.788732e-007 -1.788732e-007 -1.500000e+001
    endloop
  endfacet
  facet normal 6.882472e-001 -2.294157e-001 6.882473e-001
    outer loop
      vertex 1.500000e+001 0.000000e+000 0.000000e+000
      vertex -6.119594e-007 -3.000000e+000 1.400000e+001
      vertex 1.400000e+001 -3.000000e+000 3.577464e-008
    endloop
  endfacet
  facet normal 6.882471e-001 -2.294157e-001 6.882472e-001
    outer loop
      vertex 1.500000e+001 0.000000e+000 0.000000e+000
      vertex -6.556708e-007 1.788732e-007 1.500000e+001
      vertex -6.119594e-007 -3.000000e+000 1.400000e+001
    endloop
  endfacet
  facet normal -6.882473e-001 -2.294157e-001 6.882471e-001
    outer loop
      vertex -6.556708e-007 1.788732e-007 1.500000e+001
      vertex -1.400000e+001 -3.000000e+000 -1.188144e-006
      vertex -6.119594e-007 -3.000000e+000 1.400000e+001
    endloop
  endfacet
  facet normal -6.882473e-001 -2.294157e-001 6.882471e-001
    outer loop
      vertex -6.556708e-007 1.788732e-007 1.500000e+001
      vertex -1.500000e+001 -1.563759e-014 -1.311342e-006
      vertex -1.400000e+001 -3.000000e+000 -1.188144e-006
    endloop
  endfacet
  facet normal -6.882471e-001 -2.294158e-001 -6.882472e-001
    outer loop
      vertex -1.500000e+001 -1.563759e-014 -1.311342e-006
      vertex 1.669483e-007 -3.000000e+000 -1.400000e+001
      vertex -1.400000e+001 -3.000000e+000 -1.188144e-006
    endloop
  endfacet
  facet normal -6.882471e-001 -2.294157e-001 -6.882472e-001
    outer loop
      vertex -1.500000e+001 -1.563759e-014 -1.311342e-006
      vertex 1.788732e-007 -1.788732e-007 -1.500000e+001
      vertex 1.669483e-007 -3.000000e+000 -1.400000e+001
    endloop
  endfacet
  facet normal 6.882472e-001 -2.294157e-001 -6.882472e-001
    outer loop
      vertex 1.788732e-007 -1.788732e-007 -1.500000e+001
      vertex 1.400000e+001 -3.000000e+000 3.577464e-008
      vertex 1.669483e-007 -3.000000e+000 -1.400000e+001
    endloop
  endfacet
  facet normal 6.882472e-001 -2.294157e-001 -6.882472e-001
    outer loop
      vertex 1.788732e-007 -1.788732e-007 -1.500000e+001
      vertex 1.500000e+001 0.000000e+000 0.000000e+000
      vertex 1.400000e+001 -3.000000e+000 3.577464e-008
    endloop
  endfacet
  facet normal 6.882471e-001 -2.294157e-001 6.882473e-001
    outer loop
      vertex 1.400000e+001 -3.000000e+000 3.577464e-008
      vertex -5.682480e-007 -6.000000e+000 1.300000e+001
      vertex 1.300000e+001 -6.000000e+000 7.154928e-008
    endloop
  endfacet
  facet normal 6.882472e-001 -2.294157e-001 6.882473e-001
    outer loop
      vertex 1.400000e+001 -3.000000e+000 3.577464e-008
      vertex -6.119594e-007 -3.000000e+000 1.400000e+001
      vertex -5.682480e-007 -6.000000e+000 1.300000e+001
    endloop
  endfacet
  facet normal -6.882473e-001 -2.294157e-001 6.882471e-001
    outer loop
      vertex -6.119594e-007 -3.000000e+000 1.400000e+001
      vertex -1.300000e+001 -6.000000e+000 -1.064947e-006
      vertex -5.682480e-007 -6.000000e+000 1.300000e+001
    endloop
  endfacet
  facet normal -6.882473e-001 -2.294157e-001 6.882471e-001
    outer loop
      vertex -6.119594e-007 -3.000000e+000 1.400000e+001
      vertex -1.400000e+001 -3.000000e+000 -1.188144e-006
      vertex -1.300000e+001 -6.000000e+000 -1.064947e-006
    endloop
  endfacet
  facet normal -6.882471e-001 -2.294158e-001 -6.882472e-001
    outer loop
      vertex -1.400000e+001 -3.000000e+000 -1.188144e-006
      vertex 1.550234e-007 -6.000000e+000 -1.300000e+001
      vertex -1.300000e+001 -6.000000e+000 -1.064947e-006
    endloop
  endfacet
  facet normal -6.882471e-001 -2.294158e-001 -6.882472e-001
    outer loop
      vertex -1.400000e+001 -3.000000e+000 -1.188144e-006
      vertex 1.669483e-007 -3.000000e+000 -1.400000e+001
      vertex 1.550234e-007 -6.000000e+000 -1.300000e+001
    endloop
  endfacet
  facet normal 6.882472e-001 -2.294158e-001 -6.882472e-001
    outer loop
      vertex 1.669483e-007 -3.000000e+000 -1.400000e+001
      vertex 1.300000e+001 -6.000000e+000 7.154928e-008
      vertex 1.550234e-007 -6.000000e+000 -1.300000e+001
    endloop
  endfacet
  facet normal 6.882472e-001 -2.294157e-001 -6.882472e-001
    outer loop
      vertex 1.669483e-007 -3.000000e+000 -1.400000e+001
      vertex 1.400000e+001 -3.000000e+000 3.577464e-008
      vertex 1.300000e+001 -6.000000e+000 7.154928e-008
    endloop
  endfacet
  facet normal 6.882471e-001 -2.294157e-001 6.882473e-001
    outer loop
      vertex 1.300000e+001 -6.000000e+000 7.154928e-008
      vertex -5.245366e-007 -9.000000e+000 1.200000e+001
      vertex 1.200000e+001 -9.000000e+000 1.073239e-007
    endloop
  endfacet
  facet normal 6.882471e-001 -2.294157e-001 6.882473e-001
    outer loop
      vertex 1.300000e+001 -6.000000e+000 7.154928e-008
      vertex -5.682480e-007 -6.000000e+000 1.300000e+001
      vertex -5.245366e-007 -9.000000e+000 1.200000e+001
    endloop
  endfacet
  facet normal -6.882473e-001 -2.294157e-001 6.882471e-001
    outer loop
      vertex -5.682480e-007 -6.000000e+000 1.300000e+001
      vertex -1.200000e+001 -9.000000e+000 -9.417494e-007
      vertex -5.245366e-007 -9.000000e+000 1.200000e+001
    endloop
  endfacet
  facet normal -6.882473e-001 -2.294157e-001 6.882471e-001
    outer loop
      vertex -5.682480e-007 -6.000000e+000 1.300000e+001
      vertex -1.300000e+001 -6.000000e+000 -1.064947e-006
      vertex -1.200000e+001 -9.000000e+000 -9.417494e-007
    endloop
  endfacet
  facet normal -6.882471e-001 -2.294158e-001 -6.882472e-001
    outer loop
      vertex -1.300000e+001 -6.000000e+000 -1.064947e-006
      vertex 1.430986e-007 -9.000000e+000 -1.200000e+001
      vertex -1.200000e+001 -9.000000e+000 -9.417494e-007
    endloop
  endfacet
  facet normal -6.882471e-001 -2.294157e-001 -6.882472e-001
    outer loop
      vertex -1.300000e+001 -6.000000e+000 -1.064947e-006
      vertex 1.550234e-007 -6.000000e+000 -1.300000e+001
      vertex 1.430986e-007 -9.000000e+000 -1.200000e+001
    endloop
  endfacet
  facet normal 6.882472e-001 -2.294157e-001 -6.882472e-001
    outer loop
      vertex 1.550234e-007 -6.000000e+000 -1.300000e+001
      vertex 1.200000e+001 -9.000000e+000 1.073239e-007
      vertex 1.430986e-007 -9.000000e+000 -1.200000e+001
    endloop
  endfacet
  facet normal 6.882472e-001 -2.294157e-001 -6.882472e-001
    outer loop
      vertex 1.550234e-007 -6.000000e+000 -1.300000e+001
      vertex 1.300000e+001 -6.000000e+000 7.154928e-008
      vertex 1.200000e+001 -9.000000e+000 1.073239e-007
    endloop
  endfacet
  facet normal 6.882471e-001 -2.294157e-001 6.882473e-001
    outer loop
      vertex 1.200000e+001 -9.000000e+000 1.073239e-007
      vertex -4.808253e-007 -1.200000e+001 1.100000e+001
      vertex 1.100000e+001 -1.200000e+001 1.430986e-007
    endloop
  endfacet
  facet normal 6.882471e-001 -2.294157e-001 6.882473e-001
    outer loop
      vertex 1.200000e+001 -9.000000e+000 1.073239e-007
      vertex -5.245366e-007 -9.000000e+000 1.200000e+001
      vertex -4.808253e-007 -1.200000e+001 1.100000e+001
    endloop
  endfacet
  facet normal -6.882473e-001 -2.294157e-001 6.882471e-001
    outer loop
      vertex -5.245366e-007 -9.000000e+000 1.200000e+001
      vertex -1.100000e+001 -1.200000e+001 -8.185521e-007
      vertex -4.808253e-007 -1.200000e+001 1.100000e+001
    endloop
  endfacet
  facet normal -6.882473e-001 -2.294157e-001 6.882471e-001
    outer loop
      vertex -5.245366e-007 -9.000000e+000 1.200000e+001
      vertex -1.200000e+001 -9.000000e+000 -9.417494e-007
      vertex -1.100000e+001 -1.200000e+001 -8.185521e-007
    endloop
  endfacet
  facet normal -6.882471e-001 -2.294158e-001 -6.882473e-001
    outer loop
      vertex -1.200000e+001 -9.000000e+000 -9.417494e-007
      vertex 1.311737e-007 -1.200000e+001 -1.100000e+001
      vertex -1.100000e+001 -1.200000e+001 -8.185521e-007
    endloop
  endfacet
  facet normal -6.882471e-001 -2.294157e-001 -6.882473e-001
    outer loop
      vertex -1.200000e+001 -9.000000e+000 -9.417494e-007
      vertex 1.430986e-007 -9.000000e+000 -1.200000e+001
      vertex 1.311737e-007 -1.200000e+001 -1.100000e+001
    endloop
  endfacet
  facet normal 6.882472e-001 -2.294157e-001 -6.882472e-001
    outer loop
      vertex 1.430986e-007 -9.000000e+000 -1.200000e+001
      vertex 1.100000e+001 -1.200000e+001 1.430986e-007
      vertex 1.311737e-007 -1.200000e+001 -1.100000e+001
    endloop
  endfacet
  facet normal 6.882472e-001 -2.294157e-001 -6.882472e-001
    outer loop
      vertex 1.430986e-007 -9.000000e+000 -1.200000e+001
      vertex 1.200000e+001 -9.000000e+000 1.073239e-007
      vertex 1.100000e+001 -1.200000e+001 1.430986e-007
    endloop
  endfacet
  facet normal 6.882472e-001 -2.294157e-001 6.882472e-001
    outer loop
      vertex 1.100000e+001 -1.200000e+001 1.430986e-007
      vertex -4.371139e-007 -1.500000e+001 1.000000e+001
      vertex 1.000000e+001 -1.500000e+001 1.788732e-007
    endloop
  endfacet
  facet normal 6.882472e-001 -2.294156e-001 6.882473e-001
    outer loop
      vertex 1.100000e+001 -1.200000e+001 1.430986e-007
      vertex -4.808253e-007 -1.200000e+001 1.100000e+001
      vertex -4.371139e-007 -1.500000e+001 1.000000e+001
    endloop
  endfacet
  facet normal -6.882473e-001 -2.294157e-001 6.882471e-001
    outer loop
      vertex -4.808253e-007 -1.200000e+001 1.100000e+001
      vertex -1.000000e+001 -1.500000e+001 -6.953546e-007
      vertex -4.371139e-007 -1.500000e+001 1.000000e+001
    endloop
  endfacet
  facet normal -6.882473e-001 -2.294157e-001 6.882471e-001
    outer loop
      vertex -4.808253e-007 -1.200000e+001 1.100000e+001
      vertex -1.100000e+001 -1.200000e+001 -8.185521e-007
      vertex -1.000000e+001 -1.500000e+001 -6.953546e-007
    endloop
  endfacet
  facet normal -6.882471e-001 -2.294157e-001 -6.882473e-001
    outer loop
      vertex -1.100000e+001 -1.200000e+001 -8.185521e-007
      vertex 1.192488e-007 -1.500000e+001 -1.000000e+001
      vertex -1.000000e+001 -1.500000e+001 -6.953546e-007
    endloop
  endfacet
  facet normal -6.882471e-001 -2.294157e-001 -6.882473e-001
    outer loop
      vertex -1.100000e+001 -1.200000e+001 -8.185521e-007
      vertex 1.311737e-007 -1.200000e+001 -1.100000e+001
      vertex 1.192488e-007 -1.500000e+001 -1.000000e+001
    endloop
  endfacet
  facet normal 6.882472e-001 -2.294157e-001 -6.882472e-001
    outer loop
      vertex 1.311737e-007 -1.200000e+001 -1.100000e+001
      vertex 1.000000e+001 -1.500000e+001 1.788732e-007
      vertex 1.192488e-007 -1.500000e+001 -1.000000e+001
    endloop
  endfacet
  facet normal 6.882472e-001 -2.294157e-001 -6.882472e-001
    outer loop
      vertex 1.311737e-007 -1.200000e+001 -1.100000e+001
      vertex 1.100000e+001 -1.200000e+001 1.430986e-007
      vertex 1.000000e+001 -1.500000e+001 1.788732e-007
    endloop
  endfacet
  facet normal -0.000000e+000 -1.000000e+000 -0.000000e+000
    outer loop
      vertex 0.000000e+000 -1.500000e+001 1.788732e-007
      vertex 1.000000e+001 -1.500000e+001 1.788732e-007
      vertex -4.371139e-007 -1.500000e+001 1.000000e+001
    endloop
  endfacet
  facet normal 0.000000e+000 -1.000000e+000 0.000000e+000
    outer loop
      vertex 0.000000e+000 -1.500000e+001 1.788732e-007
      vertex -4.371139e-007 -1.500000e+001 1.000000e+001
      vertex -1.000000e+001 -1.500000e+001 -6.953546e-007
    endloop
  endfacet
  facet normal 0.000000e+000 -1.000000e+000 0.000000e+000
    outer loop
      vertex 0.000000e+000 -1.500000e+001 1.788732e-007
      vertex -1.000000e+001 -1.500000e+001 -6.953546e-007
      vertex 1.192488e-007 -1.500000e+001 -1.000000e+001
    endloop
  endfacet
  facet normal 0.000000e+000 -1.000000e+000 0.000000e+000
    outer loop
      vertex 0.000000e+000 -1.500000e+001 1.788732e-007
      vertex 1.192488e-007 -1.500000e+001 -1.000000e+001
      vertex 1.000000e+001 -1.500000e+001 1.788732e-007
    endloop
  endfacet
endsolid Object01
