solid Object01
  facet normal 0.000000e+000 1.000000e+000 -1.192488e-008
    outer loop
      vertex 0.000000e+000 0.000000e+000 0.000000e+000
      vertex 1.448889e+001 4.629579e-008 3.882286e+000
      vertex 1.500000e+001 0.000000e+000 0.000000e+000
    endloop
  endfacet
  facet normal 0.000000e+000 1.000000e+000 -1.192488e-008
    outer loop
      vertex 0.000000e+000 0.000000e+000 0.000000e+000
      vertex 1.299038e+001 8.943660e-008 7.500000e+000
      vertex 1.448889e+001 4.629579e-008 3.882286e+000
    endloop
  endfacet
  facet normal 0.000000e+000 1.000000e+000 -1.192488e-008
    outer loop
      vertex 0.000000e+000 0.000000e+000 0.000000e+000
      vertex 1.060660e+001 1.264825e-007 1.060660e+001
      vertex 1.299038e+001 8.943660e-008 7.500000e+000
    endloop
  endfacet
  facet normal 0.000000e+000 1.000000e+000 -1.192488e-008
    outer loop
      vertex 0.000000e+000 0.000000e+000 0.000000e+000
      vertex 7.500000e+000 1.549087e-007 1.299038e+001
      vertex 1.060660e+001 1.264825e-007 1.060660e+001
    endloop
  endfacet
  facet normal 0.000000e+000 1.000000e+000 -1.192488e-008
    outer loop
      vertex 0.000000e+000 0.000000e+000 0.000000e+000
      vertex 3.882286e+000 1.727782e-007 1.448889e+001
      vertex 7.500000e+000 1.549087e-007 1.299038e+001
    endloop
  endfacet
  facet normal 0.000000e+000 1.000000e+000 -1.192488e-008
    outer loop
      vertex 0.000000e+000 0.000000e+000 0.000000e+000
      vertex 1.132468e-006 1.788732e-007 1.500000e+001
      vertex 3.882286e+000 1.727782e-007 1.448889e+001
    endloop
  endfacet
  facet normal 0.000000e+000 1.000000e+000 -1.192488e-008
    outer loop
      vertex 0.000000e+000 0.000000e+000 0.000000e+000
      vertex -3.882284e+000 1.727783e-007 1.448889e+001
      vertex 1.132468e-006 1.788732e-007 1.500000e+001
    endloop
  endfacet
  facet normal 0.000000e+000 1.000000e+000 -1.192488e-008
    outer loop
      vertex 0.000000e+000 0.000000e+000 0.000000e+000
      vertex -7.499998e+000 1.549088e-007 1.299038e+001
      vertex -3.882284e+000 1.727783e-007 1.448889e+001
    endloop
  endfacet
  facet normal -1.952233e-015 1.000000e+000 -1.192488e-008
    outer loop
      vertex 0.000000e+000 0.000000e+000 0.000000e+000
      vertex -1.060660e+001 1.264825e-007 1.060660e+001
      vertex -7.499998e+000 1.549088e-007 1.299038e+001
    endloop
  endfacet
  facet normal 9.761160e-016 1.000000e+000 -1.192488e-008
    outer loop
      vertex 0.000000e+000 0.000000e+000 0.000000e+000
      vertex -1.299038e+001 8.943665e-008 7.500004e+000
      vertex -1.060660e+001 1.264825e-007 1.060660e+001
    endloop
  endfacet
  facet normal 0.000000e+000 1.000000e+000 -1.192488e-008
    outer loop
      vertex 0.000000e+000 0.000000e+000 0.000000e+000
      vertex -1.448889e+001 4.629585e-008 3.882291e+000
      vertex -1.299038e+001 8.943665e-008 7.500004e+000
    endloop
  endfacet
  facet normal 0.000000e+000 1.000000e+000 -1.192488e-008
    outer loop
      vertex 0.000000e+000 0.000000e+000 0.000000e+000
      vertex -1.500000e+001 6.965580e-014 5.841216e-006
      vertex -1.448889e+001 4.629585e-008 3.882291e+000
    endloop
  endfacet
  facet normal 0.000000e+000 1.000000e+000 -1.192488e-008
    outer loop
      vertex 0.000000e+000 0.000000e+000 0.000000e+000
      vertex -1.448889e+001 -4.629572e-008 -3.882279e+000
      vertex -1.500000e+001 6.965580e-014 5.841216e-006
    endloop
  endfacet
  facet normal 4.880581e-016 1.000000e+000 -1.192488e-008
    outer loop
      vertex 0.000000e+000 0.000000e+000 0.000000e+000
      vertex -1.299038e+001 -8.943653e-008 -7.499994e+000
      vertex -1.448889e+001 -4.629572e-008 -3.882279e+000
    endloop
  endfacet
  facet normal -9.761164e-016 1.000000e+000 -1.192488e-008
    outer loop
      vertex 0.000000e+000 0.000000e+000 0.000000e+000
      vertex -1.060661e+001 -1.264824e-007 -1.060660e+001
      vertex -1.299038e+001 -8.943653e-008 -7.499994e+000
    endloop
  endfacet
  facet normal -1.952231e-015 1.000000e+000 -1.192488e-008
    outer loop
      vertex 0.000000e+000 0.000000e+000 0.000000e+000
      vertex -7.500004e+000 -1.549087e-007 -1.299038e+001
      vertex -1.060661e+001 -1.264824e-007 -1.060660e+001
    endloop
  endfacet
  facet normal 3.904465e-015 1.000000e+000 -1.192488e-008
    outer loop
      vertex 0.000000e+000 0.000000e+000 0.000000e+000
      vertex -3.882292e+000 -1.727782e-007 -1.448889e+001
      vertex -7.500004e+000 -1.549087e-007 -1.299038e+001
    endloop
  endfacet
  facet normal 3.904465e-015 1.000000e+000 -1.192488e-008
    outer loop
      vertex 0.000000e+000 0.000000e+000 0.000000e+000
      vertex -6.973684e-006 -1.788732e-007 -1.500000e+001
      vertex -3.882292e+000 -1.727782e-007 -1.448889e+001
    endloop
  endfacet
  facet normal 0.000000e+000 1.000000e+000 -1.192488e-008
    outer loop
      vertex 0.000000e+000 0.000000e+000 0.000000e+000
      vertex 3.882278e+000 -1.727783e-007 -1.448889e+001
      vertex -6.973684e-006 -1.788732e-007 -1.500000e+001
    endloop
  endfacet
  facet normal 0.000000e+000 1.000000e+000 -1.192488e-008
    outer loop
      vertex 0.000000e+000 0.000000e+000 0.000000e+000
      vertex 7.499992e+000 -1.549088e-007 -1.299039e+001
      vertex 3.882278e+000 -1.727783e-007 -1.448889e+001
    endloop
  endfacet
  facet normal -1.952233e-015 1.000000e+000 -1.192488e-008
    outer loop
      vertex 0.000000e+000 0.000000e+000 0.000000e+000
      vertex 1.060660e+001 -1.264825e-007 -1.060661e+001
      vertex 7.499992e+000 -1.549088e-007 -1.299039e+001
    endloop
  endfacet
  facet normal 0.000000e+000 1.000000e+000 -1.192488e-008
    outer loop
      vertex 0.000000e+000 0.000000e+000 0.000000e+000
      vertex 1.299038e+001 -8.943671e-008 -7.500009e+000
      vertex 1.060660e+001 -1.264825e-007 -1.060661e+001
    endloop
  endfacet
  facet normal 0.000000e+000 1.000000e+000 -1.192488e-008
    outer loop
      vertex 0.000000e+000 0.000000e+000 0.000000e+000
      vertex 1.448888e+001 -4.629592e-008 -3.882296e+000
      vertex 1.299038e+001 -8.943671e-008 -7.500009e+000
    endloop
  endfacet
  facet normal 0.000000e+000 1.000000e+000 -1.192488e-008
    outer loop
      vertex 0.000000e+000 0.000000e+000 0.000000e+000
      vertex 1.500000e+001 0.000000e+000 0.000000e+000
      vertex 1.448888e+001 -4.629592e-008 -3.882296e+000
    endloop
  endfacet
  facet normal 9.413694e-001 -3.137898e-001 1.239336e-001
    outer loop
      vertex 1.500000e+001 0.000000e+000 0.000000e+000
      vertex 1.352296e+001 -3.000000e+000 3.623466e+000
      vertex 1.400000e+001 -3.000000e+000 3.577464e-008
    endloop
  endfacet
  facet normal 9.413695e-001 -3.137897e-001 1.239338e-001
    outer loop
      vertex 1.500000e+001 0.000000e+000 0.000000e+000
      vertex 1.448889e+001 4.629579e-008 3.882286e+000
      vertex 1.352296e+001 -3.000000e+000 3.623466e+000
    endloop
  endfacet
  facet normal 8.772167e-001 -3.137896e-001 3.633551e-001
    outer loop
      vertex 1.448889e+001 4.629579e-008 3.882286e+000
      vertex 1.212436e+001 -3.000000e+000 7.000000e+000
      vertex 1.352296e+001 -3.000000e+000 3.623466e+000
    endloop
  endfacet
  facet normal 8.772167e-001 -3.137899e-001 3.633548e-001
    outer loop
      vertex 1.448889e+001 4.629579e-008 3.882286e+000
      vertex 1.299038e+001 8.943660e-008 7.500000e+000
      vertex 1.212436e+001 -3.000000e+000 7.000000e+000
    endloop
  endfacet
  facet normal 7.532831e-001 -3.137899e-001 5.780143e-001
    outer loop
      vertex 1.299038e+001 8.943660e-008 7.500000e+000
      vertex 9.899495e+000 -3.000000e+000 9.899495e+000
      vertex 1.212436e+001 -3.000000e+000 7.000000e+000
    endloop
  endfacet
  facet normal 7.532830e-001 -3.137897e-001 5.780144e-001
    outer loop
      vertex 1.299038e+001 8.943660e-008 7.500000e+000
      vertex 1.060660e+001 1.264825e-007 1.060660e+001
      vertex 9.899495e+000 -3.000000e+000 9.899495e+000
    endloop
  endfacet
  facet normal 5.780144e-001 -3.137897e-001 7.532830e-001
    outer loop
      vertex 1.060660e+001 1.264825e-007 1.060660e+001
      vertex 7.000000e+000 -3.000000e+000 1.212436e+001
      vertex 9.899495e+000 -3.000000e+000 9.899495e+000
    endloop
  endfacet
  facet normal 5.780144e-001 -3.137897e-001 7.532831e-001
    outer loop
      vertex 1.060660e+001 1.264825e-007 1.060660e+001
      vertex 7.500000e+000 1.549087e-007 1.299038e+001
      vertex 7.000000e+000 -3.000000e+000 1.212436e+001
    endloop
  endfacet
  facet normal 3.633550e-001 -3.137897e-001 8.772167e-001
    outer loop
      vertex 7.500000e+000 1.549087e-007 1.299038e+001
      vertex 3.623467e+000 -3.000000e+000 1.352296e+001
      vertex 7.000000e+000 -3.000000e+000 1.212436e+001
    endloop
  endfacet
  facet normal 3.633550e-001 -3.137897e-001 8.772168e-001
    outer loop
      vertex 7.500000e+000 1.549087e-007 1.299038e+001
      vertex 3.882286e+000 1.727782e-007 1.448889e+001
      vertex 3.623467e+000 -3.000000e+000 1.352296e+001
    endloop
  endfacet
  facet normal 1.239337e-001 -3.137897e-001 9.413695e-001
    outer loop
      vertex 3.882286e+000 1.727782e-007 1.448889e+001
      vertex 1.056971e-006 -3.000000e+000 1.400000e+001
      vertex 3.623467e+000 -3.000000e+000 1.352296e+001
    endloop
  endfacet
  facet normal 1.239338e-001 -3.137898e-001 9.413694e-001
    outer loop
      vertex 3.882286e+000 1.727782e-007 1.448889e+001
      vertex 1.132468e-006 1.788732e-007 1.500000e+001
      vertex 1.056971e-006 -3.000000e+000 1.400000e+001
    endloop
  endfacet
  facet normal -1.239334e-001 -3.137898e-001 9.413695e-001
    outer loop
      vertex 1.132468e-006 1.788732e-007 1.500000e+001
      vertex -3.623465e+000 -3.000000e+000 1.352296e+001
      vertex 1.056971e-006 -3.000000e+000 1.400000e+001
    endloop
  endfacet
  facet normal -1.239336e-001 -3.137896e-001 9.413695e-001
    outer loop
      vertex 1.132468e-006 1.788732e-007 1.500000e+001
      vertex -3.882284e+000 1.727783e-007 1.448889e+001
      vertex -3.623465e+000 -3.000000e+000 1.352296e+001
    endloop
  endfacet
  facet normal -3.633550e-001 -3.137896e-001 8.772168e-001
    outer loop
      vertex -3.882284e+000 1.727783e-007 1.448889e+001
      vertex -6.999998e+000 -3.000000e+000 1.212436e+001
      vertex -3.623465e+000 -3.000000e+000 1.352296e+001
    endloop
  endfacet
  facet normal -3.633550e-001 -3.137896e-001 8.772168e-001
    outer loop
      vertex -3.882284e+000 1.727783e-007 1.448889e+001
      vertex -7.499998e+000 1.549088e-007 1.299038e+001
      vertex -6.999998e+000 -3.000000e+000 1.212436e+001
    endloop
  endfacet
  facet normal -5.780144e-001 -3.137896e-001 7.532831e-001
    outer loop
      vertex -7.499998e+000 1.549088e-007 1.299038e+001
      vertex -9.899492e+000 -3.000000e+000 9.899497e+000
      vertex -6.999998e+000 -3.000000e+000 1.212436e+001
    endloop
  endfacet
  facet normal -5.780141e-001 -3.137900e-001 7.532831e-001
    outer loop
      vertex -7.499998e+000 1.549088e-007 1.299038e+001
      vertex -1.060660e+001 1.264825e-007 1.060660e+001
      vertex -9.899492e+000 -3.000000e+000 9.899497e+000
    endloop
  endfacet
  facet normal -7.532828e-001 -3.137899e-001 5.780146e-001
    outer loop
      vertex -1.060660e+001 1.264825e-007 1.060660e+001
      vertex -1.212435e+001 -3.000000e+000 7.000003e+000
      vertex -9.899492e+000 -3.000000e+000 9.899497e+000
    endloop
  endfacet
  facet normal -7.532828e-001 -3.137900e-001 5.780146e-001
    outer loop
      vertex -1.060660e+001 1.264825e-007 1.060660e+001
      vertex -1.299038e+001 8.943665e-008 7.500004e+000
      vertex -1.212435e+001 -3.000000e+000 7.000003e+000
    endloop
  endfacet
  facet normal -8.772165e-001 -3.137900e-001 3.633554e-001
    outer loop
      vertex -1.299038e+001 8.943665e-008 7.500004e+000
      vertex -1.352296e+001 -3.000000e+000 3.623471e+000
      vertex -1.212435e+001 -3.000000e+000 7.000003e+000
    endloop
  endfacet
  facet normal -8.772166e-001 -3.137897e-001 3.633552e-001
    outer loop
      vertex -1.299038e+001 8.943665e-008 7.500004e+000
      vertex -1.448889e+001 4.629585e-008 3.882291e+000
      vertex -1.352296e+001 -3.000000e+000 3.623471e+000
    endloop
  endfacet
  facet normal -9.413695e-001 -3.137897e-001 1.239339e-001
    outer loop
      vertex -1.448889e+001 4.629585e-008 3.882291e+000
      vertex -1.400000e+001 -3.000000e+000 5.487576e-006
      vertex -1.352296e+001 -3.000000e+000 3.623471e+000
    endloop
  endfacet
  facet normal -9.413694e-001 -3.137898e-001 1.239340e-001
    outer loop
      vertex -1.448889e+001 4.629585e-008 3.882291e+000
      vertex -1.500000e+001 6.965580e-014 5.841216e-006
      vertex -1.400000e+001 -3.000000e+000 5.487576e-006
    endloop
  endfacet
  facet normal -9.413695e-001 -3.137898e-001 -1.239334e-001
    outer loop
      vertex -1.500000e+001 6.965580e-014 5.841216e-006
      vertex -1.352296e+001 -3.000000e+000 -3.623461e+000
      vertex -1.400000e+001 -3.000000e+000 5.487576e-006
    endloop
  endfacet
  facet normal -9.413695e-001 -3.137899e-001 -1.239333e-001
    outer loop
      vertex -1.500000e+001 6.965580e-014 5.841216e-006
      vertex -1.448889e+001 -4.629572e-008 -3.882279e+000
      vertex -1.352296e+001 -3.000000e+000 -3.623461e+000
    endloop
  endfacet
  facet normal -8.772169e-001 -3.137899e-001 -3.633545e-001
    outer loop
      vertex -1.448889e+001 -4.629572e-008 -3.882279e+000
      vertex -1.212436e+001 -3.000000e+000 -6.999994e+000
      vertex -1.352296e+001 -3.000000e+000 -3.623461e+000
    endloop
  endfacet
  facet normal -8.772169e-001 -3.137896e-001 -3.633547e-001
    outer loop
      vertex -1.448889e+001 -4.629572e-008 -3.882279e+000
      vertex -1.299038e+001 -8.943653e-008 -7.499994e+000
      vertex -1.212436e+001 -3.000000e+000 -6.999994e+000
    endloop
  endfacet
  facet normal -7.532834e-001 -3.137897e-001 -5.780140e-001
    outer loop
      vertex -1.299038e+001 -8.943653e-008 -7.499994e+000
      vertex -9.899501e+000 -3.000000e+000 -9.899489e+000
      vertex -1.212436e+001 -3.000000e+000 -6.999994e+000
    endloop
  endfacet
  facet normal -7.532834e-001 -3.137897e-001 -5.780140e-001
    outer loop
      vertex -1.299038e+001 -8.943653e-008 -7.499994e+000
      vertex -1.060661e+001 -1.264824e-007 -1.060660e+001
      vertex -9.899501e+000 -3.000000e+000 -9.899489e+000
    endloop
  endfacet
  facet normal -5.780147e-001 -3.137898e-001 -7.532828e-001
    outer loop
      vertex -1.060661e+001 -1.264824e-007 -1.060660e+001
      vertex -7.000004e+000 -3.000000e+000 -1.212435e+001
      vertex -9.899501e+000 -3.000000e+000 -9.899489e+000
    endloop
  endfacet
  facet normal -5.780147e-001 -3.137897e-001 -7.532828e-001
    outer loop
      vertex -1.060661e+001 -1.264824e-007 -1.060660e+001
      vertex -7.500004e+000 -1.549087e-007 -1.299038e+001
      vertex -7.000004e+000 -3.000000e+000 -1.212435e+001
    endloop
  endfacet
  facet normal -3.633552e-001 -3.137897e-001 -8.772166e-001
    outer loop
      vertex -7.500004e+000 -1.549087e-007 -1.299038e+001
      vertex -3.623472e+000 -3.000000e+000 -1.352296e+001
      vertex -7.000004e+000 -3.000000e+000 -1.212435e+001
    endloop
  endfacet
  facet normal -3.633554e-001 -3.137900e-001 -8.772165e-001
    outer loop
      vertex -7.500004e+000 -1.549087e-007 -1.299038e+001
      vertex -3.882292e+000 -1.727782e-007 -1.448889e+001
      vertex -3.623472e+000 -3.000000e+000 -1.352296e+001
    endloop
  endfacet
  facet normal -1.239341e-001 -3.137899e-001 -9.413693e-001
    outer loop
      vertex -3.882292e+000 -1.727782e-007 -1.448889e+001
      vertex -6.508772e-006 -3.000000e+000 -1.400000e+001
      vertex -3.623472e+000 -3.000000e+000 -1.352296e+001
    endloop
  endfacet
  facet normal -1.239340e-001 -3.137898e-001 -9.413694e-001
    outer loop
      vertex -3.882292e+000 -1.727782e-007 -1.448889e+001
      vertex -6.973684e-006 -1.788732e-007 -1.500000e+001
      vertex -6.508772e-006 -3.000000e+000 -1.400000e+001
    endloop
  endfacet
  facet normal 1.239334e-001 -3.137898e-001 -9.413695e-001
    outer loop
      vertex -6.973684e-006 -1.788732e-007 -1.500000e+001
      vertex 3.623460e+000 -3.000000e+000 -1.352296e+001
      vertex -6.508772e-006 -3.000000e+000 -1.400000e+001
    endloop
  endfacet
  facet normal 1.239333e-001 -3.137899e-001 -9.413695e-001
    outer loop
      vertex -6.973684e-006 -1.788732e-007 -1.500000e+001
      vertex 3.882278e+000 -1.727783e-007 -1.448889e+001
      vertex 3.623460e+000 -3.000000e+000 -1.352296e+001
    endloop
  endfacet
  facet normal 3.633545e-001 -3.137899e-001 -8.772169e-001
    outer loop
      vertex 3.882278e+000 -1.727783e-007 -1.448889e+001
      vertex 6.999993e+000 -3.000000e+000 -1.212436e+001
      vertex 3.623460e+000 -3.000000e+000 -1.352296e+001
    endloop
  endfacet
  facet normal 3.633545e-001 -3.137898e-001 -8.772169e-001
    outer loop
      vertex 3.882278e+000 -1.727783e-007 -1.448889e+001
      vertex 7.499992e+000 -1.549088e-007 -1.299039e+001
      vertex 6.999993e+000 -3.000000e+000 -1.212436e+001
    endloop
  endfacet
  facet normal 5.780138e-001 -3.137899e-001 -7.532835e-001
    outer loop
      vertex 7.499992e+000 -1.549088e-007 -1.299039e+001
      vertex 9.899488e+000 -3.000000e+000 -9.899502e+000
      vertex 6.999993e+000 -3.000000e+000 -1.212436e+001
    endloop
  endfacet
  facet normal 5.780139e-001 -3.137897e-001 -7.532834e-001
    outer loop
      vertex 7.499992e+000 -1.549088e-007 -1.299039e+001
      vertex 1.060660e+001 -1.264825e-007 -1.060661e+001
      vertex 9.899488e+000 -3.000000e+000 -9.899502e+000
    endloop
  endfacet
  facet normal 7.532826e-001 -3.137898e-001 -5.780150e-001
    outer loop
      vertex 1.060660e+001 -1.264825e-007 -1.060661e+001
      vertex 1.212435e+001 -3.000000e+000 -7.000009e+000
      vertex 9.899488e+000 -3.000000e+000 -9.899502e+000
    endloop
  endfacet
  facet normal 7.532826e-001 -3.137898e-001 -5.780150e-001
    outer loop
      vertex 1.060660e+001 -1.264825e-007 -1.060661e+001
      vertex 1.299038e+001 -8.943671e-008 -7.500009e+000
      vertex 1.212435e+001 -3.000000e+000 -7.000009e+000
    endloop
  endfacet
  facet normal 8.772165e-001 -3.137898e-001 -3.633555e-001
    outer loop
      vertex 1.299038e+001 -8.943671e-008 -7.500009e+000
      vertex 1.352296e+001 -3.000000e+000 -3.623477e+000
      vertex 1.212435e+001 -3.000000e+000 -7.000009e+000
    endloop
  endfacet
  facet normal 8.772164e-001 -3.137900e-001 -3.633556e-001
    outer loop
      vertex 1.299038e+001 -8.943671e-008 -7.500009e+000
      vertex 1.448888e+001 -4.629592e-008 -3.882296e+000
      vertex 1.352296e+001 -3.000000e+000 -3.623477e+000
    endloop
  endfacet
  facet normal 9.413694e-001 -3.137900e-001 -1.239340e-001
    outer loop
      vertex 1.448888e+001 -4.629592e-008 -3.882296e+000
      vertex 1.400000e+001 -3.000000e+000 3.577464e-008
      vertex 1.352296e+001 -3.000000e+000 -3.623477e+000
    endloop
  endfacet
  facet normal 9.413694e-001 -3.137898e-001 -1.239339e-001
    outer loop
      vertex 1.448888e+001 -4.629592e-008 -3.882296e+000
      vertex 1.500000e+001 0.000000e+000 0.000000e+000
      vertex 1.400000e+001 -3.000000e+000 3.577464e-008
    endloop
  endfacet
  facet normal 9.413694e-001 -3.137898e-001 1.239337e-001
    outer loop
      vertex 1.400000e+001 -3.000000e+000 3.577464e-008
      vertex 1.255704e+001 -6.000000e+000 3.364648e+000
      vertex 1.300000e+001 -6.000000e+000 7.154928e-008
    endloop
  endfacet
  facet normal 9.413694e-001 -3.137899e-001 1.239336e-001
    outer loop
      vertex 1.400000e+001 -3.000000e+000 3.577464e-008
      vertex 1.352296e+001 -3.000000e+000 3.623466e+000
      vertex 1.255704e+001 -6.000000e+000 3.364648e+000
    endloop
  endfacet
  facet normal 8.772167e-001 -3.137899e-001 3.633549e-001
    outer loop
      vertex 1.352296e+001 -3.000000e+000 3.623466e+000
      vertex 1.125833e+001 -6.000000e+000 6.500000e+000
      vertex 1.255704e+001 -6.000000e+000 3.364648e+000
    endloop
  endfacet
  facet normal 8.772166e-001 -3.137897e-001 3.633551e-001
    outer loop
      vertex 1.352296e+001 -3.000000e+000 3.623466e+000
      vertex 1.212436e+001 -3.000000e+000 7.000000e+000
      vertex 1.125833e+001 -6.000000e+000 6.500000e+000
    endloop
  endfacet
  facet normal 7.532829e-001 -3.137897e-001 5.780146e-001
    outer loop
      vertex 1.212436e+001 -3.000000e+000 7.000000e+000
      vertex 9.192388e+000 -6.000000e+000 9.192388e+000
      vertex 1.125833e+001 -6.000000e+000 6.500000e+000
    endloop
  endfacet
  facet normal 7.532830e-001 -3.137901e-001 5.780142e-001
    outer loop
      vertex 1.212436e+001 -3.000000e+000 7.000000e+000
      vertex 9.899495e+000 -3.000000e+000 9.899495e+000
      vertex 9.192388e+000 -6.000000e+000 9.192388e+000
    endloop
  endfacet
  facet normal 5.780147e-001 -3.137901e-001 7.532827e-001
    outer loop
      vertex 9.899495e+000 -3.000000e+000 9.899495e+000
      vertex 6.500000e+000 -6.000000e+000 1.125833e+001
      vertex 9.192388e+000 -6.000000e+000 9.192388e+000
    endloop
  endfacet
  facet normal 5.780144e-001 -3.137897e-001 7.532831e-001
    outer loop
      vertex 9.899495e+000 -3.000000e+000 9.899495e+000
      vertex 7.000000e+000 -3.000000e+000 1.212436e+001
      vertex 6.500000e+000 -6.000000e+000 1.125833e+001
    endloop
  endfacet
  facet normal 3.633548e-001 -3.137897e-001 8.772168e-001
    outer loop
      vertex 7.000000e+000 -3.000000e+000 1.212436e+001
      vertex 3.364648e+000 -6.000000e+000 1.255704e+001
      vertex 6.500000e+000 -6.000000e+000 1.125833e+001
    endloop
  endfacet
  facet normal 3.633550e-001 -3.137899e-001 8.772166e-001
    outer loop
      vertex 7.000000e+000 -3.000000e+000 1.212436e+001
      vertex 3.623467e+000 -3.000000e+000 1.352296e+001
      vertex 3.364648e+000 -6.000000e+000 1.255704e+001
    endloop
  endfacet
  facet normal 1.239337e-001 -3.137899e-001 9.413694e-001
    outer loop
      vertex 3.623467e+000 -3.000000e+000 1.352296e+001
      vertex 9.814727e-007 -6.000000e+000 1.300000e+001
      vertex 3.364648e+000 -6.000000e+000 1.255704e+001
    endloop
  endfacet
  facet normal 1.239337e-001 -3.137898e-001 9.413694e-001
    outer loop
      vertex 3.623467e+000 -3.000000e+000 1.352296e+001
      vertex 1.056971e-006 -3.000000e+000 1.400000e+001
      vertex 9.814727e-007 -6.000000e+000 1.300000e+001
    endloop
  endfacet
  facet normal -1.239335e-001 -3.137898e-001 9.413695e-001
    outer loop
      vertex 1.056971e-006 -3.000000e+000 1.400000e+001
      vertex -3.364646e+000 -6.000000e+000 1.255704e+001
      vertex 9.814727e-007 -6.000000e+000 1.300000e+001
    endloop
  endfacet
  facet normal -1.239334e-001 -3.137899e-001 9.413694e-001
    outer loop
      vertex 1.056971e-006 -3.000000e+000 1.400000e+001
      vertex -3.623465e+000 -3.000000e+000 1.352296e+001
      vertex -3.364646e+000 -6.000000e+000 1.255704e+001
    endloop
  endfacet
  facet normal -3.633550e-001 -3.137899e-001 8.772167e-001
    outer loop
      vertex -3.623465e+000 -3.000000e+000 1.352296e+001
      vertex -6.499998e+000 -6.000000e+000 1.125833e+001
      vertex -3.364646e+000 -6.000000e+000 1.255704e+001
    endloop
  endfacet
  facet normal -3.633550e-001 -3.137899e-001 8.772166e-001
    outer loop
      vertex -3.623465e+000 -3.000000e+000 1.352296e+001
      vertex -6.999998e+000 -3.000000e+000 1.212436e+001
      vertex -6.499998e+000 -6.000000e+000 1.125833e+001
    endloop
  endfacet
  facet normal -5.780143e-001 -3.137899e-001 7.532831e-001
    outer loop
      vertex -6.999998e+000 -3.000000e+000 1.212436e+001
      vertex -9.192386e+000 -6.000000e+000 9.192390e+000
      vertex -6.499998e+000 -6.000000e+000 1.125833e+001
    endloop
  endfacet
  facet normal -5.780144e-001 -3.137898e-001 7.532830e-001
    outer loop
      vertex -6.999998e+000 -3.000000e+000 1.212436e+001
      vertex -9.899492e+000 -3.000000e+000 9.899497e+000
      vertex -9.192386e+000 -6.000000e+000 9.192390e+000
    endloop
  endfacet
  facet normal -7.532829e-001 -3.137898e-001 5.780146e-001
    outer loop
      vertex -9.899492e+000 -3.000000e+000 9.899497e+000
      vertex -1.125833e+001 -6.000000e+000 6.500003e+000
      vertex -9.192386e+000 -6.000000e+000 9.192390e+000
    endloop
  endfacet
  facet normal -7.532828e-001 -3.137898e-001 5.780146e-001
    outer loop
      vertex -9.899492e+000 -3.000000e+000 9.899497e+000
      vertex -1.212435e+001 -3.000000e+000 7.000003e+000
      vertex -1.125833e+001 -6.000000e+000 6.500003e+000
    endloop
  endfacet
  facet normal -8.772166e-001 -3.137898e-001 3.633553e-001
    outer loop
      vertex -1.212435e+001 -3.000000e+000 7.000003e+000
      vertex -1.255703e+001 -6.000000e+000 3.364652e+000
      vertex -1.125833e+001 -6.000000e+000 6.500003e+000
    endloop
  endfacet
  facet normal -8.772165e-001 -3.137899e-001 3.633554e-001
    outer loop
      vertex -1.212435e+001 -3.000000e+000 7.000003e+000
      vertex -1.352296e+001 -3.000000e+000 3.623471e+000
      vertex -1.255703e+001 -6.000000e+000 3.364652e+000
    endloop
  endfacet
  facet normal -9.413694e-001 -3.137899e-001 1.239340e-001
    outer loop
      vertex -1.352296e+001 -3.000000e+000 3.623471e+000
      vertex -1.300000e+001 -6.000000e+000 5.133936e-006
      vertex -1.255703e+001 -6.000000e+000 3.364652e+000
    endloop
  endfacet
  facet normal -9.413694e-001 -3.137898e-001 1.239339e-001
    outer loop
      vertex -1.352296e+001 -3.000000e+000 3.623471e+000
      vertex -1.400000e+001 -3.000000e+000 5.487576e-006
      vertex -1.300000e+001 -6.000000e+000 5.133936e-006
    endloop
  endfacet
  facet normal -9.413695e-001 -3.137898e-001 -1.239332e-001
    outer loop
      vertex -1.400000e+001 -3.000000e+000 5.487576e-006
      vertex -1.255704e+001 -6.000000e+000 -3.364642e+000
      vertex -1.300000e+001 -6.000000e+000 5.133936e-006
    endloop
  endfacet
  facet normal -9.413695e-001 -3.137896e-001 -1.239334e-001
    outer loop
      vertex -1.400000e+001 -3.000000e+000 5.487576e-006
      vertex -1.352296e+001 -3.000000e+000 -3.623461e+000
      vertex -1.255704e+001 -6.000000e+000 -3.364642e+000
    endloop
  endfacet
  facet normal -8.772169e-001 -3.137896e-001 -3.633547e-001
    outer loop
      vertex -1.352296e+001 -3.000000e+000 -3.623461e+000
      vertex -1.125833e+001 -6.000000e+000 -6.499995e+000
      vertex -1.255704e+001 -6.000000e+000 -3.364642e+000
    endloop
  endfacet
  facet normal -8.772169e-001 -3.137899e-001 -3.633545e-001
    outer loop
      vertex -1.352296e+001 -3.000000e+000 -3.623461e+000
      vertex -1.212436e+001 -3.000000e+000 -6.999994e+000
      vertex -1.125833e+001 -6.000000e+000 -6.499995e+000
    endloop
  endfacet
  facet normal -7.532834e-001 -3.137898e-001 -5.780138e-001
    outer loop
      vertex -1.212436e+001 -3.000000e+000 -6.999994e+000
      vertex -9.192393e+000 -6.000000e+000 -9.192384e+000
      vertex -1.125833e+001 -6.000000e+000 -6.499995e+000
    endloop
  endfacet
  facet normal -7.532834e-001 -3.137898e-001 -5.780140e-001
    outer loop
      vertex -1.212436e+001 -3.000000e+000 -6.999994e+000
      vertex -9.899501e+000 -3.000000e+000 -9.899489e+000
      vertex -9.192393e+000 -6.000000e+000 -9.192384e+000
    endloop
  endfacet
  facet normal -5.780145e-001 -3.137897e-001 -7.532830e-001
    outer loop
      vertex -9.899501e+000 -3.000000e+000 -9.899489e+000
      vertex -6.500004e+000 -6.000000e+000 -1.125833e+001
      vertex -9.192393e+000 -6.000000e+000 -9.192384e+000
    endloop
  endfacet
  facet normal -5.780147e-001 -3.137900e-001 -7.532827e-001
    outer loop
      vertex -9.899501e+000 -3.000000e+000 -9.899489e+000
      vertex -7.000004e+000 -3.000000e+000 -1.212435e+001
      vertex -6.500004e+000 -6.000000e+000 -1.125833e+001
    endloop
  endfacet
  facet normal -3.633552e-001 -3.137900e-001 -8.772165e-001
    outer loop
      vertex -7.000004e+000 -3.000000e+000 -1.212435e+001
      vertex -3.364653e+000 -6.000000e+000 -1.255703e+001
      vertex -6.500004e+000 -6.000000e+000 -1.125833e+001
    endloop
  endfacet
  facet normal -3.633552e-001 -3.137900e-001 -8.772165e-001
    outer loop
      vertex -7.000004e+000 -3.000000e+000 -1.212435e+001
      vertex -3.623472e+000 -3.000000e+000 -1.352296e+001
      vertex -3.364653e+000 -6.000000e+000 -1.255703e+001
    endloop
  endfacet
  facet normal -1.239343e-001 -3.137900e-001 -9.413693e-001
    outer loop
      vertex -3.623472e+000 -3.000000e+000 -1.352296e+001
      vertex -6.043860e-006 -6.000000e+000 -1.300000e+001
      vertex -3.364653e+000 -6.000000e+000 -1.255703e+001
    endloop
  endfacet
  facet normal -1.239341e-001 -3.137898e-001 -9.413694e-001
    outer loop
      vertex -3.623472e+000 -3.000000e+000 -1.352296e+001
      vertex -6.508772e-006 -3.000000e+000 -1.400000e+001
      vertex -6.043860e-006 -6.000000e+000 -1.300000e+001
    endloop
  endfacet
  facet normal 1.239332e-001 -3.137898e-001 -9.413695e-001
    outer loop
      vertex -6.508772e-006 -3.000000e+000 -1.400000e+001
      vertex 3.364641e+000 -6.000000e+000 -1.255704e+001
      vertex -6.043860e-006 -6.000000e+000 -1.300000e+001
    endloop
  endfacet
  facet normal 1.239334e-001 -3.137896e-001 -9.413695e-001
    outer loop
      vertex -6.508772e-006 -3.000000e+000 -1.400000e+001
      vertex 3.623460e+000 -3.000000e+000 -1.352296e+001
      vertex 3.364641e+000 -6.000000e+000 -1.255704e+001
    endloop
  endfacet
  facet normal 3.633545e-001 -3.137897e-001 -8.772169e-001
    outer loop
      vertex 3.623460e+000 -3.000000e+000 -1.352296e+001
      vertex 6.499993e+000 -6.000000e+000 -1.125833e+001
      vertex 3.364641e+000 -6.000000e+000 -1.255704e+001
    endloop
  endfacet
  facet normal 3.633545e-001 -3.137897e-001 -8.772169e-001
    outer loop
      vertex 3.623460e+000 -3.000000e+000 -1.352296e+001
      vertex 6.999993e+000 -3.000000e+000 -1.212436e+001
      vertex 6.499993e+000 -6.000000e+000 -1.125833e+001
    endloop
  endfacet
  facet normal 5.780138e-001 -3.137897e-001 -7.532835e-001
    outer loop
      vertex 6.999993e+000 -3.000000e+000 -1.212436e+001
      vertex 9.192383e+000 -6.000000e+000 -9.192394e+000
      vertex 6.499993e+000 -6.000000e+000 -1.125833e+001
    endloop
  endfacet
  facet normal 5.780138e-001 -3.137897e-001 -7.532836e-001
    outer loop
      vertex 6.999993e+000 -3.000000e+000 -1.212436e+001
      vertex 9.899488e+000 -3.000000e+000 -9.899502e+000
      vertex 9.192383e+000 -6.000000e+000 -9.192394e+000
    endloop
  endfacet
  facet normal 7.532827e-001 -3.137897e-001 -5.780149e-001
    outer loop
      vertex 9.899488e+000 -3.000000e+000 -9.899502e+000
      vertex 1.125833e+001 -6.000000e+000 -6.500008e+000
      vertex 9.192383e+000 -6.000000e+000 -9.192394e+000
    endloop
  endfacet
  facet normal 7.532825e-001 -3.137898e-001 -5.780150e-001
    outer loop
      vertex 9.899488e+000 -3.000000e+000 -9.899502e+000
      vertex 1.212435e+001 -3.000000e+000 -7.000009e+000
      vertex 1.125833e+001 -6.000000e+000 -6.500008e+000
    endloop
  endfacet
  facet normal 8.772165e-001 -3.137898e-001 -3.633555e-001
    outer loop
      vertex 1.212435e+001 -3.000000e+000 -7.000009e+000
      vertex 1.255703e+001 -6.000000e+000 -3.364657e+000
      vertex 1.125833e+001 -6.000000e+000 -6.500008e+000
    endloop
  endfacet
  facet normal 8.772165e-001 -3.137897e-001 -3.633555e-001
    outer loop
      vertex 1.212435e+001 -3.000000e+000 -7.000009e+000
      vertex 1.352296e+001 -3.000000e+000 -3.623477e+000
      vertex 1.255703e+001 -6.000000e+000 -3.364657e+000
    endloop
  endfacet
  facet normal 9.413695e-001 -3.137897e-001 -1.239339e-001
    outer loop
      vertex 1.352296e+001 -3.000000e+000 -3.623477e+000
      vertex 1.300000e+001 -6.000000e+000 7.154928e-008
      vertex 1.255703e+001 -6.000000e+000 -3.364657e+000
    endloop
  endfacet
  facet normal 9.413694e-001 -3.137898e-001 -1.239340e-001
    outer loop
      vertex 1.352296e+001 -3.000000e+000 -3.623477e+000
      vertex 1.400000e+001 -3.000000e+000 3.577464e-008
      vertex 1.300000e+001 -6.000000e+000 7.154928e-008
    endloop
  endfacet
  facet normal 9.413695e-001 -3.137898e-001 1.239335e-001
    outer loop
      vertex 1.300000e+001 -6.000000e+000 7.154928e-008
      vertex 1.159111e+001 -9.000000e+000 3.105829e+000
      vertex 1.200000e+001 -9.000000e+000 1.073239e-007
    endloop
  endfacet
  facet normal 9.413695e-001 -3.137896e-001 1.239337e-001
    outer loop
      vertex 1.300000e+001 -6.000000e+000 7.154928e-008
      vertex 1.255704e+001 -6.000000e+000 3.364648e+000
      vertex 1.159111e+001 -9.000000e+000 3.105829e+000
    endloop
  endfacet
  facet normal 8.772166e-001 -3.137896e-001 3.633552e-001
    outer loop
      vertex 1.255704e+001 -6.000000e+000 3.364648e+000
      vertex 1.039230e+001 -9.000000e+000 6.000000e+000
      vertex 1.159111e+001 -9.000000e+000 3.105829e+000
    endloop
  endfacet
  facet normal 8.772166e-001 -3.137899e-001 3.633549e-001
    outer loop
      vertex 1.255704e+001 -6.000000e+000 3.364648e+000
      vertex 1.125833e+001 -6.000000e+000 6.500000e+000
      vertex 1.039230e+001 -9.000000e+000 6.000000e+000
    endloop
  endfacet
  facet normal 7.532830e-001 -3.137899e-001 5.780144e-001
    outer loop
      vertex 1.125833e+001 -6.000000e+000 6.500000e+000
      vertex 8.485281e+000 -9.000000e+000 8.485281e+000
      vertex 1.039230e+001 -9.000000e+000 6.000000e+000
    endloop
  endfacet
  facet normal 7.532829e-001 -3.137898e-001 5.780146e-001
    outer loop
      vertex 1.125833e+001 -6.000000e+000 6.500000e+000
      vertex 9.192388e+000 -6.000000e+000 9.192388e+000
      vertex 8.485281e+000 -9.000000e+000 8.485281e+000
    endloop
  endfacet
  facet normal 5.780146e-001 -3.137898e-001 7.532829e-001
    outer loop
      vertex 9.192388e+000 -6.000000e+000 9.192388e+000
      vertex 6.000000e+000 -9.000000e+000 1.039231e+001
      vertex 8.485281e+000 -9.000000e+000 8.485281e+000
    endloop
  endfacet
  facet normal 5.780147e-001 -3.137899e-001 7.532827e-001
    outer loop
      vertex 9.192388e+000 -6.000000e+000 9.192388e+000
      vertex 6.500000e+000 -6.000000e+000 1.125833e+001
      vertex 6.000000e+000 -9.000000e+000 1.039231e+001
    endloop
  endfacet
  facet normal 3.633550e-001 -3.137899e-001 8.772166e-001
    outer loop
      vertex 6.500000e+000 -6.000000e+000 1.125833e+001
      vertex 3.105829e+000 -9.000000e+000 1.159111e+001
      vertex 6.000000e+000 -9.000000e+000 1.039231e+001
    endloop
  endfacet
  facet normal 3.633548e-001 -3.137897e-001 8.772168e-001
    outer loop
      vertex 6.500000e+000 -6.000000e+000 1.125833e+001
      vertex 3.364648e+000 -6.000000e+000 1.255704e+001
      vertex 3.105829e+000 -9.000000e+000 1.159111e+001
    endloop
  endfacet
  facet normal 1.239336e-001 -3.137896e-001 9.413695e-001
    outer loop
      vertex 3.364648e+000 -6.000000e+000 1.255704e+001
      vertex 9.059748e-007 -9.000000e+000 1.200000e+001
      vertex 3.105829e+000 -9.000000e+000 1.159111e+001
    endloop
  endfacet
  facet normal 1.239337e-001 -3.137898e-001 9.413694e-001
    outer loop
      vertex 3.364648e+000 -6.000000e+000 1.255704e+001
      vertex 9.814727e-007 -6.000000e+000 1.300000e+001
      vertex 9.059748e-007 -9.000000e+000 1.200000e+001
    endloop
  endfacet
  facet normal -1.239336e-001 -3.137898e-001 9.413694e-001
    outer loop
      vertex 9.814727e-007 -6.000000e+000 1.300000e+001
      vertex -3.105827e+000 -9.000000e+000 1.159111e+001
      vertex 9.059748e-007 -9.000000e+000 1.200000e+001
    endloop
  endfacet
  facet normal -1.239335e-001 -3.137899e-001 9.413694e-001
    outer loop
      vertex 9.814727e-007 -6.000000e+000 1.300000e+001
      vertex -3.364646e+000 -6.000000e+000 1.255704e+001
      vertex -3.105827e+000 -9.000000e+000 1.159111e+001
    endloop
  endfacet
  facet normal -3.633548e-001 -3.137899e-001 8.772168e-001
    outer loop
      vertex -3.364646e+000 -6.000000e+000 1.255704e+001
      vertex -5.999998e+000 -9.000000e+000 1.039231e+001
      vertex -3.105827e+000 -9.000000e+000 1.159111e+001
    endloop
  endfacet
  facet normal -3.633550e-001 -3.137897e-001 8.772167e-001
    outer loop
      vertex -3.364646e+000 -6.000000e+000 1.255704e+001
      vertex -6.499998e+000 -6.000000e+000 1.125833e+001
      vertex -5.999998e+000 -9.000000e+000 1.039231e+001
    endloop
  endfacet
  facet normal -5.780144e-001 -3.137897e-001 7.532830e-001
    outer loop
      vertex -6.499998e+000 -6.000000e+000 1.125833e+001
      vertex -8.485279e+000 -9.000000e+000 8.485283e+000
      vertex -5.999998e+000 -9.000000e+000 1.039231e+001
    endloop
  endfacet
  facet normal -5.780143e-001 -3.137899e-001 7.532831e-001
    outer loop
      vertex -6.499998e+000 -6.000000e+000 1.125833e+001
      vertex -9.192386e+000 -6.000000e+000 9.192390e+000
      vertex -8.485279e+000 -9.000000e+000 8.485283e+000
    endloop
  endfacet
  facet normal -7.532827e-001 -3.137899e-001 5.780147e-001
    outer loop
      vertex -9.192386e+000 -6.000000e+000 9.192390e+000
      vertex -1.039230e+001 -9.000000e+000 6.000003e+000
      vertex -8.485279e+000 -9.000000e+000 8.485283e+000
    endloop
  endfacet
  facet normal -7.532829e-001 -3.137897e-001 5.780146e-001
    outer loop
      vertex -9.192386e+000 -6.000000e+000 9.192390e+000
      vertex -1.125833e+001 -6.000000e+000 6.500003e+000
      vertex -1.039230e+001 -9.000000e+000 6.000003e+000
    endloop
  endfacet
  facet normal -8.772166e-001 -3.137897e-001 3.633554e-001
    outer loop
      vertex -1.125833e+001 -6.000000e+000 6.500003e+000
      vertex -1.159111e+001 -9.000000e+000 3.105833e+000
      vertex -1.039230e+001 -9.000000e+000 6.000003e+000
    endloop
  endfacet
  facet normal -8.772166e-001 -3.137897e-001 3.633553e-001
    outer loop
      vertex -1.125833e+001 -6.000000e+000 6.500003e+000
      vertex -1.255703e+001 -6.000000e+000 3.364652e+000
      vertex -1.159111e+001 -9.000000e+000 3.105833e+000
    endloop
  endfacet
  facet normal -9.413695e-001 -3.137897e-001 1.239339e-001
    outer loop
      vertex -1.255703e+001 -6.000000e+000 3.364652e+000
      vertex -1.200000e+001 -9.000000e+000 4.780296e-006
      vertex -1.159111e+001 -9.000000e+000 3.105833e+000
    endloop
  endfacet
  facet normal -9.413694e-001 -3.137898e-001 1.239340e-001
    outer loop
      vertex -1.255703e+001 -6.000000e+000 3.364652e+000
      vertex -1.300000e+001 -6.000000e+000 5.133936e-006
      vertex -1.200000e+001 -9.000000e+000 4.780296e-006
    endloop
  endfacet
  facet normal -9.413695e-001 -3.137898e-001 -1.239333e-001
    outer loop
      vertex -1.300000e+001 -6.000000e+000 5.133936e-006
      vertex -1.159111e+001 -9.000000e+000 -3.105824e+000
      vertex -1.200000e+001 -9.000000e+000 4.780296e-006
    endloop
  endfacet
  facet normal -9.413695e-001 -3.137898e-001 -1.239332e-001
    outer loop
      vertex -1.300000e+001 -6.000000e+000 5.133936e-006
      vertex -1.255704e+001 -6.000000e+000 -3.364642e+000
      vertex -1.159111e+001 -9.000000e+000 -3.105824e+000
    endloop
  endfacet
  facet normal -8.772168e-001 -3.137899e-001 -3.633547e-001
    outer loop
      vertex -1.255704e+001 -6.000000e+000 -3.364642e+000
      vertex -1.039231e+001 -9.000000e+000 -5.999995e+000
      vertex -1.159111e+001 -9.000000e+000 -3.105824e+000
    endloop
  endfacet
  facet normal -8.772168e-001 -3.137899e-001 -3.633547e-001
    outer loop
      vertex -1.255704e+001 -6.000000e+000 -3.364642e+000
      vertex -1.125833e+001 -6.000000e+000 -6.499995e+000
      vertex -1.039231e+001 -9.000000e+000 -5.999995e+000
    endloop
  endfacet
  facet normal -7.532835e-001 -3.137899e-001 -5.780137e-001
    outer loop
      vertex -1.125833e+001 -6.000000e+000 -6.499995e+000
      vertex -8.485287e+000 -9.000000e+000 -8.485277e+000
      vertex -1.039231e+001 -9.000000e+000 -5.999995e+000
    endloop
  endfacet
  facet normal -7.532834e-001 -3.137897e-001 -5.780139e-001
    outer loop
      vertex -1.125833e+001 -6.000000e+000 -6.499995e+000
      vertex -9.192393e+000 -6.000000e+000 -9.192384e+000
      vertex -8.485287e+000 -9.000000e+000 -8.485277e+000
    endloop
  endfacet
  facet normal -5.780146e-001 -3.137898e-001 -7.532830e-001
    outer loop
      vertex -9.192393e+000 -6.000000e+000 -9.192384e+000
      vertex -6.000004e+000 -9.000000e+000 -1.039230e+001
      vertex -8.485287e+000 -9.000000e+000 -8.485277e+000
    endloop
  endfacet
  facet normal -5.780145e-001 -3.137897e-001 -7.532830e-001
    outer loop
      vertex -9.192393e+000 -6.000000e+000 -9.192384e+000
      vertex -6.500004e+000 -6.000000e+000 -1.125833e+001
      vertex -6.000004e+000 -9.000000e+000 -1.039230e+001
    endloop
  endfacet
  facet normal -3.633553e-001 -3.137897e-001 -8.772166e-001
    outer loop
      vertex -6.500004e+000 -6.000000e+000 -1.125833e+001
      vertex -3.105833e+000 -9.000000e+000 -1.159111e+001
      vertex -6.000004e+000 -9.000000e+000 -1.039230e+001
    endloop
  endfacet
  facet normal -3.633553e-001 -3.137897e-001 -8.772166e-001
    outer loop
      vertex -6.500004e+000 -6.000000e+000 -1.125833e+001
      vertex -3.364653e+000 -6.000000e+000 -1.255703e+001
      vertex -3.105833e+000 -9.000000e+000 -1.159111e+001
    endloop
  endfacet
  facet normal -1.239341e-001 -3.137897e-001 -9.413694e-001
    outer loop
      vertex -3.364653e+000 -6.000000e+000 -1.255703e+001
      vertex -5.578947e-006 -9.000000e+000 -1.200000e+001
      vertex -3.105833e+000 -9.000000e+000 -1.159111e+001
    endloop
  endfacet
  facet normal -1.239343e-001 -3.137898e-001 -9.413694e-001
    outer loop
      vertex -3.364653e+000 -6.000000e+000 -1.255703e+001
      vertex -6.043860e-006 -6.000000e+000 -1.300000e+001
      vertex -5.578947e-006 -9.000000e+000 -1.200000e+001
    endloop
  endfacet
  facet normal 1.239333e-001 -3.137898e-001 -9.413695e-001
    outer loop
      vertex -6.043860e-006 -6.000000e+000 -1.300000e+001
      vertex 3.105823e+000 -9.000000e+000 -1.159111e+001
      vertex -5.578947e-006 -9.000000e+000 -1.200000e+001
    endloop
  endfacet
  facet normal 1.239332e-001 -3.137898e-001 -9.413695e-001
    outer loop
      vertex -6.043860e-006 -6.000000e+000 -1.300000e+001
      vertex 3.364641e+000 -6.000000e+000 -1.255704e+001
      vertex 3.105823e+000 -9.000000e+000 -1.159111e+001
    endloop
  endfacet
  facet normal 3.633545e-001 -3.137899e-001 -8.772169e-001
    outer loop
      vertex 3.364641e+000 -6.000000e+000 -1.255704e+001
      vertex 5.999994e+000 -9.000000e+000 -1.039231e+001
      vertex 3.105823e+000 -9.000000e+000 -1.159111e+001
    endloop
  endfacet
  facet normal 3.633545e-001 -3.137899e-001 -8.772169e-001
    outer loop
      vertex 3.364641e+000 -6.000000e+000 -1.255704e+001
      vertex 6.499993e+000 -6.000000e+000 -1.125833e+001
      vertex 5.999994e+000 -9.000000e+000 -1.039231e+001
    endloop
  endfacet
  facet normal 5.780138e-001 -3.137899e-001 -7.532834e-001
    outer loop
      vertex 6.499993e+000 -6.000000e+000 -1.125833e+001
      vertex 8.485276e+000 -9.000000e+000 -8.485287e+000
      vertex 5.999994e+000 -9.000000e+000 -1.039231e+001
    endloop
  endfacet
  facet normal 5.780138e-001 -3.137899e-001 -7.532834e-001
    outer loop
      vertex 6.499993e+000 -6.000000e+000 -1.125833e+001
      vertex 9.192383e+000 -6.000000e+000 -9.192394e+000
      vertex 8.485276e+000 -9.000000e+000 -8.485287e+000
    endloop
  endfacet
  facet normal 7.532825e-001 -3.137899e-001 -5.780150e-001
    outer loop
      vertex 9.192383e+000 -6.000000e+000 -9.192394e+000
      vertex 1.039230e+001 -9.000000e+000 -6.000007e+000
      vertex 8.485276e+000 -9.000000e+000 -8.485287e+000
    endloop
  endfacet
  facet normal 7.532827e-001 -3.137898e-001 -5.780149e-001
    outer loop
      vertex 9.192383e+000 -6.000000e+000 -9.192394e+000
      vertex 1.125833e+001 -6.000000e+000 -6.500008e+000
      vertex 1.039230e+001 -9.000000e+000 -6.000007e+000
    endloop
  endfacet
  facet normal 8.772165e-001 -3.137898e-001 -3.633554e-001
    outer loop
      vertex 1.125833e+001 -6.000000e+000 -6.500008e+000
      vertex 1.159111e+001 -9.000000e+000 -3.105837e+000
      vertex 1.039230e+001 -9.000000e+000 -6.000007e+000
    endloop
  endfacet
  facet normal 8.772164e-001 -3.137900e-001 -3.633556e-001
    outer loop
      vertex 1.125833e+001 -6.000000e+000 -6.500008e+000
      vertex 1.255703e+001 -6.000000e+000 -3.364657e+000
      vertex 1.159111e+001 -9.000000e+000 -3.105837e+000
    endloop
  endfacet
  facet normal 9.413694e-001 -3.137900e-001 -1.239341e-001
    outer loop
      vertex 1.255703e+001 -6.000000e+000 -3.364657e+000
      vertex 1.200000e+001 -9.000000e+000 1.073239e-007
      vertex 1.159111e+001 -9.000000e+000 -3.105837e+000
    endloop
  endfacet
  facet normal 9.413694e-001 -3.137898e-001 -1.239339e-001
    outer loop
      vertex 1.255703e+001 -6.000000e+000 -3.364657e+000
      vertex 1.300000e+001 -6.000000e+000 7.154928e-008
      vertex 1.200000e+001 -9.000000e+000 1.073239e-007
    endloop
  endfacet
  facet normal 9.413694e-001 -3.137898e-001 1.239336e-001
    outer loop
      vertex 1.200000e+001 -9.000000e+000 1.073239e-007
      vertex 1.062518e+001 -1.200000e+001 2.847010e+000
      vertex 1.100000e+001 -1.200000e+001 1.430986e-007
    endloop
  endfacet
  facet normal 9.413694e-001 -3.137899e-001 1.239335e-001
    outer loop
      vertex 1.200000e+001 -9.000000e+000 1.073239e-007
      vertex 1.159111e+001 -9.000000e+000 3.105829e+000
      vertex 1.062518e+001 -1.200000e+001 2.847010e+000
    endloop
  endfacet
  facet normal 8.772166e-001 -3.137899e-001 3.633550e-001
    outer loop
      vertex 1.159111e+001 -9.000000e+000 3.105829e+000
      vertex 9.526279e+000 -1.200000e+001 5.500000e+000
      vertex 1.062518e+001 -1.200000e+001 2.847010e+000
    endloop
  endfacet
  facet normal 8.772166e-001 -3.137897e-001 3.633552e-001
    outer loop
      vertex 1.159111e+001 -9.000000e+000 3.105829e+000
      vertex 1.039230e+001 -9.000000e+000 6.000000e+000
      vertex 9.526279e+000 -1.200000e+001 5.500000e+000
    endloop
  endfacet
  facet normal 7.532830e-001 -3.137897e-001 5.780145e-001
    outer loop
      vertex 1.039230e+001 -9.000000e+000 6.000000e+000
      vertex 7.778174e+000 -1.200000e+001 7.778174e+000
      vertex 9.526279e+000 -1.200000e+001 5.500000e+000
    endloop
  endfacet
  facet normal 7.532830e-001 -3.137897e-001 5.780144e-001
    outer loop
      vertex 1.039230e+001 -9.000000e+000 6.000000e+000
      vertex 8.485281e+000 -9.000000e+000 8.485281e+000
      vertex 7.778174e+000 -1.200000e+001 7.778174e+000
    endloop
  endfacet
  facet normal 5.780144e-001 -3.137897e-001 7.532831e-001
    outer loop
      vertex 8.485281e+000 -9.000000e+000 8.485281e+000
      vertex 5.500000e+000 -1.200000e+001 9.526279e+000
      vertex 7.778174e+000 -1.200000e+001 7.778174e+000
    endloop
  endfacet
  facet normal 5.780146e-001 -3.137899e-001 7.532828e-001
    outer loop
      vertex 8.485281e+000 -9.000000e+000 8.485281e+000
      vertex 6.000000e+000 -9.000000e+000 1.039231e+001
      vertex 5.500000e+000 -1.200000e+001 9.526279e+000
    endloop
  endfacet
  facet normal 3.633551e-001 -3.137899e-001 8.772166e-001
    outer loop
      vertex 6.000000e+000 -9.000000e+000 1.039231e+001
      vertex 2.847010e+000 -1.200000e+001 1.062518e+001
      vertex 5.500000e+000 -1.200000e+001 9.526279e+000
    endloop
  endfacet
  facet normal 3.633550e-001 -3.137899e-001 8.772166e-001
    outer loop
      vertex 6.000000e+000 -9.000000e+000 1.039231e+001
      vertex 3.105829e+000 -9.000000e+000 1.159111e+001
      vertex 2.847010e+000 -1.200000e+001 1.062518e+001
    endloop
  endfacet
  facet normal 1.239337e-001 -3.137899e-001 9.413694e-001
    outer loop
      vertex 3.105829e+000 -9.000000e+000 1.159111e+001
      vertex 8.304769e-007 -1.200000e+001 1.100000e+001
      vertex 2.847010e+000 -1.200000e+001 1.062518e+001
    endloop
  endfacet
  facet normal 1.239336e-001 -3.137898e-001 9.413695e-001
    outer loop
      vertex 3.105829e+000 -9.000000e+000 1.159111e+001
      vertex 9.059748e-007 -9.000000e+000 1.200000e+001
      vertex 8.304769e-007 -1.200000e+001 1.100000e+001
    endloop
  endfacet
  facet normal -1.239334e-001 -3.137898e-001 9.413695e-001
    outer loop
      vertex 9.059748e-007 -9.000000e+000 1.200000e+001
      vertex -2.847008e+000 -1.200000e+001 1.062519e+001
      vertex 8.304769e-007 -1.200000e+001 1.100000e+001
    endloop
  endfacet
  facet normal -1.239336e-001 -3.137896e-001 9.413695e-001
    outer loop
      vertex 9.059748e-007 -9.000000e+000 1.200000e+001
      vertex -3.105827e+000 -9.000000e+000 1.159111e+001
      vertex -2.847008e+000 -1.200000e+001 1.062519e+001
    endloop
  endfacet
  facet normal -3.633551e-001 -3.137896e-001 8.772167e-001
    outer loop
      vertex -3.105827e+000 -9.000000e+000 1.159111e+001
      vertex -5.499999e+000 -1.200000e+001 9.526280e+000
      vertex -2.847008e+000 -1.200000e+001 1.062519e+001
    endloop
  endfacet
  facet normal -3.633548e-001 -3.137899e-001 8.772168e-001
    outer loop
      vertex -3.105827e+000 -9.000000e+000 1.159111e+001
      vertex -5.999998e+000 -9.000000e+000 1.039231e+001
      vertex -5.499999e+000 -1.200000e+001 9.526280e+000
    endloop
  endfacet
  facet normal -5.780143e-001 -3.137898e-001 7.532830e-001
    outer loop
      vertex -5.999998e+000 -9.000000e+000 1.039231e+001
      vertex -7.778172e+000 -1.200000e+001 7.778176e+000
      vertex -5.499999e+000 -1.200000e+001 9.526280e+000
    endloop
  endfacet
  facet normal -5.780144e-001 -3.137897e-001 7.532830e-001
    outer loop
      vertex -5.999998e+000 -9.000000e+000 1.039231e+001
      vertex -8.485279e+000 -9.000000e+000 8.485283e+000
      vertex -7.778172e+000 -1.200000e+001 7.778176e+000
    endloop
  endfacet
  facet normal -7.532828e-001 -3.137897e-001 5.780146e-001
    outer loop
      vertex -8.485279e+000 -9.000000e+000 8.485283e+000
      vertex -9.526278e+000 -1.200000e+001 5.500003e+000
      vertex -7.778172e+000 -1.200000e+001 7.778176e+000
    endloop
  endfacet
  facet normal -7.532827e-001 -3.137899e-001 5.780147e-001
    outer loop
      vertex -8.485279e+000 -9.000000e+000 8.485283e+000
      vertex -1.039230e+001 -9.000000e+000 6.000003e+000
      vertex -9.526278e+000 -1.200000e+001 5.500003e+000
    endloop
  endfacet
  facet normal -8.772165e-001 -3.137900e-001 3.633554e-001
    outer loop
      vertex -1.039230e+001 -9.000000e+000 6.000003e+000
      vertex -1.062518e+001 -1.200000e+001 2.847013e+000
      vertex -9.526278e+000 -1.200000e+001 5.500003e+000
    endloop
  endfacet
  facet normal -8.772165e-001 -3.137899e-001 3.633554e-001
    outer loop
      vertex -1.039230e+001 -9.000000e+000 6.000003e+000
      vertex -1.159111e+001 -9.000000e+000 3.105833e+000
      vertex -1.062518e+001 -1.200000e+001 2.847013e+000
    endloop
  endfacet
  facet normal -9.413694e-001 -3.137899e-001 1.239340e-001
    outer loop
      vertex -1.159111e+001 -9.000000e+000 3.105833e+000
      vertex -1.100000e+001 -1.200000e+001 4.426657e-006
      vertex -1.062518e+001 -1.200000e+001 2.847013e+000
    endloop
  endfacet
  facet normal -9.413694e-001 -3.137898e-001 1.239339e-001
    outer loop
      vertex -1.159111e+001 -9.000000e+000 3.105833e+000
      vertex -1.200000e+001 -9.000000e+000 4.780296e-006
      vertex -1.100000e+001 -1.200000e+001 4.426657e-006
    endloop
  endfacet
  facet normal -9.413695e-001 -3.137898e-001 -1.239334e-001
    outer loop
      vertex -1.200000e+001 -9.000000e+000 4.780296e-006
      vertex -1.062519e+001 -1.200000e+001 -2.847005e+000
      vertex -1.100000e+001 -1.200000e+001 4.426657e-006
    endloop
  endfacet
  facet normal -9.413695e-001 -3.137899e-001 -1.239333e-001
    outer loop
      vertex -1.200000e+001 -9.000000e+000 4.780296e-006
      vertex -1.159111e+001 -9.000000e+000 -3.105824e+000
      vertex -1.062519e+001 -1.200000e+001 -2.847005e+000
    endloop
  endfacet
  facet normal -8.772169e-001 -3.137899e-001 -3.633544e-001
    outer loop
      vertex -1.159111e+001 -9.000000e+000 -3.105824e+000
      vertex -9.526282e+000 -1.200000e+001 -5.499995e+000
      vertex -1.062519e+001 -1.200000e+001 -2.847005e+000
    endloop
  endfacet
  facet normal -8.772168e-001 -3.137897e-001 -3.633547e-001
    outer loop
      vertex -1.159111e+001 -9.000000e+000 -3.105824e+000
      vertex -1.039231e+001 -9.000000e+000 -5.999995e+000
      vertex -9.526282e+000 -1.200000e+001 -5.499995e+000
    endloop
  endfacet
  facet normal -7.532834e-001 -3.137897e-001 -5.780140e-001
    outer loop
      vertex -1.039231e+001 -9.000000e+000 -5.999995e+000
      vertex -7.778179e+000 -1.200000e+001 -7.778171e+000
      vertex -9.526282e+000 -1.200000e+001 -5.499995e+000
    endloop
  endfacet
  facet normal -7.532835e-001 -3.137899e-001 -5.780137e-001
    outer loop
      vertex -1.039231e+001 -9.000000e+000 -5.999995e+000
      vertex -8.485287e+000 -9.000000e+000 -8.485277e+000
      vertex -7.778179e+000 -1.200000e+001 -7.778171e+000
    endloop
  endfacet
  facet normal -5.780146e-001 -3.137899e-001 -7.532828e-001
    outer loop
      vertex -8.485287e+000 -9.000000e+000 -8.485277e+000
      vertex -5.500003e+000 -1.200000e+001 -9.526278e+000
      vertex -7.778179e+000 -1.200000e+001 -7.778171e+000
    endloop
  endfacet
  facet normal -5.780146e-001 -3.137898e-001 -7.532829e-001
    outer loop
      vertex -8.485287e+000 -9.000000e+000 -8.485277e+000
      vertex -6.000004e+000 -9.000000e+000 -1.039230e+001
      vertex -5.500003e+000 -1.200000e+001 -9.526278e+000
    endloop
  endfacet
  facet normal -3.633554e-001 -3.137898e-001 -8.772165e-001
    outer loop
      vertex -6.000004e+000 -9.000000e+000 -1.039230e+001
      vertex -2.847014e+000 -1.200000e+001 -1.062518e+001
      vertex -5.500003e+000 -1.200000e+001 -9.526278e+000
    endloop
  endfacet
  facet normal -3.633553e-001 -3.137897e-001 -8.772166e-001
    outer loop
      vertex -6.000004e+000 -9.000000e+000 -1.039230e+001
      vertex -3.105833e+000 -9.000000e+000 -1.159111e+001
      vertex -2.847014e+000 -1.200000e+001 -1.062518e+001
    endloop
  endfacet
  facet normal -1.239340e-001 -3.137897e-001 -9.413694e-001
    outer loop
      vertex -3.105833e+000 -9.000000e+000 -1.159111e+001
      vertex -5.114035e-006 -1.200000e+001 -1.100000e+001
      vertex -2.847014e+000 -1.200000e+001 -1.062518e+001
    endloop
  endfacet
  facet normal -1.239341e-001 -3.137898e-001 -9.413694e-001
    outer loop
      vertex -3.105833e+000 -9.000000e+000 -1.159111e+001
      vertex -5.578947e-006 -9.000000e+000 -1.200000e+001
      vertex -5.114035e-006 -1.200000e+001 -1.100000e+001
    endloop
  endfacet
  facet normal 1.239334e-001 -3.137898e-001 -9.413695e-001
    outer loop
      vertex -5.578947e-006 -9.000000e+000 -1.200000e+001
      vertex 2.847004e+000 -1.200000e+001 -1.062519e+001
      vertex -5.114035e-006 -1.200000e+001 -1.100000e+001
    endloop
  endfacet
  facet normal 1.239333e-001 -3.137899e-001 -9.413695e-001
    outer loop
      vertex -5.578947e-006 -9.000000e+000 -1.200000e+001
      vertex 3.105823e+000 -9.000000e+000 -1.159111e+001
      vertex 2.847004e+000 -1.200000e+001 -1.062519e+001
    endloop
  endfacet
  facet normal 3.633545e-001 -3.137899e-001 -8.772169e-001
    outer loop
      vertex 3.105823e+000 -9.000000e+000 -1.159111e+001
      vertex 5.499994e+000 -1.200000e+001 -9.526282e+000
      vertex 2.847004e+000 -1.200000e+001 -1.062519e+001
    endloop
  endfacet
  facet normal 3.633545e-001 -3.137899e-001 -8.772169e-001
    outer loop
      vertex 3.105823e+000 -9.000000e+000 -1.159111e+001
      vertex 5.999994e+000 -9.000000e+000 -1.039231e+001
      vertex 5.499994e+000 -1.200000e+001 -9.526282e+000
    endloop
  endfacet
  facet normal 5.780138e-001 -3.137899e-001 -7.532834e-001
    outer loop
      vertex 5.999994e+000 -9.000000e+000 -1.039231e+001
      vertex 7.778170e+000 -1.200000e+001 -7.778180e+000
      vertex 5.499994e+000 -1.200000e+001 -9.526282e+000
    endloop
  endfacet
  facet normal 5.780139e-001 -3.137898e-001 -7.532834e-001
    outer loop
      vertex 5.999994e+000 -9.000000e+000 -1.039231e+001
      vertex 8.485276e+000 -9.000000e+000 -8.485287e+000
      vertex 7.778170e+000 -1.200000e+001 -7.778180e+000
    endloop
  endfacet
  facet normal 7.532826e-001 -3.137898e-001 -5.780149e-001
    outer loop
      vertex 8.485276e+000 -9.000000e+000 -8.485287e+000
      vertex 9.526276e+000 -1.200000e+001 -5.500007e+000
      vertex 7.778170e+000 -1.200000e+001 -7.778180e+000
    endloop
  endfacet
  facet normal 7.532825e-001 -3.137900e-001 -5.780150e-001
    outer loop
      vertex 8.485276e+000 -9.000000e+000 -8.485287e+000
      vertex 1.039230e+001 -9.000000e+000 -6.000007e+000
      vertex 9.526276e+000 -1.200000e+001 -5.500007e+000
    endloop
  endfacet
  facet normal 8.772163e-001 -3.137900e-001 -3.633556e-001
    outer loop
      vertex 1.039230e+001 -9.000000e+000 -6.000007e+000
      vertex 1.062518e+001 -1.200000e+001 -2.847017e+000
      vertex 9.526276e+000 -1.200000e+001 -5.500007e+000
    endloop
  endfacet
  facet normal 8.772165e-001 -3.137898e-001 -3.633554e-001
    outer loop
      vertex 1.039230e+001 -9.000000e+000 -6.000007e+000
      vertex 1.159111e+001 -9.000000e+000 -3.105837e+000
      vertex 1.062518e+001 -1.200000e+001 -2.847017e+000
    endloop
  endfacet
  facet normal 9.413694e-001 -3.137897e-001 -1.239339e-001
    outer loop
      vertex 1.159111e+001 -9.000000e+000 -3.105837e+000
      vertex 1.100000e+001 -1.200000e+001 1.430986e-007
      vertex 1.062518e+001 -1.200000e+001 -2.847017e+000
    endloop
  endfacet
  facet normal 9.413694e-001 -3.137898e-001 -1.239341e-001
    outer loop
      vertex 1.159111e+001 -9.000000e+000 -3.105837e+000
      vertex 1.200000e+001 -9.000000e+000 1.073239e-007
      vertex 1.100000e+001 -1.200000e+001 1.430986e-007
    endloop
  endfacet
  facet normal 9.413694e-001 -3.137898e-001 1.239338e-001
    outer loop
      vertex 1.100000e+001 -1.200000e+001 1.430986e-007
      vertex 9.659258e+000 -1.500000e+001 2.588191e+000
      vertex 1.000000e+001 -1.500000e+001 1.788732e-007
    endloop
  endfacet
  facet normal 9.413694e-001 -3.137899e-001 1.239337e-001
    outer loop
      vertex 1.100000e+001 -1.200000e+001 1.430986e-007
      vertex 1.062518e+001 -1.200000e+001 2.847010e+000
      vertex 9.659258e+000 -1.500000e+001 2.588191e+000
    endloop
  endfacet
  facet normal 8.772166e-001 -3.137899e-001 3.633551e-001
    outer loop
      vertex 1.062518e+001 -1.200000e+001 2.847010e+000
      vertex 8.660254e+000 -1.500000e+001 5.000000e+000
      vertex 9.659258e+000 -1.500000e+001 2.588191e+000
    endloop
  endfacet
  facet normal 8.772166e-001 -3.137899e-001 3.633550e-001
    outer loop
      vertex 1.062518e+001 -1.200000e+001 2.847010e+000
      vertex 9.526279e+000 -1.200000e+001 5.500000e+000
      vertex 8.660254e+000 -1.500000e+001 5.000000e+000
    endloop
  endfacet
  facet normal 7.532831e-001 -3.137899e-001 5.780143e-001
    outer loop
      vertex 9.526279e+000 -1.200000e+001 5.500000e+000
      vertex 7.071068e+000 -1.500000e+001 7.071068e+000
      vertex 8.660254e+000 -1.500000e+001 5.000000e+000
    endloop
  endfacet
  facet normal 7.532830e-001 -3.137898e-001 5.780145e-001
    outer loop
      vertex 9.526279e+000 -1.200000e+001 5.500000e+000
      vertex 7.778174e+000 -1.200000e+001 7.778174e+000
      vertex 7.071068e+000 -1.500000e+001 7.071068e+000
    endloop
  endfacet
  facet normal 5.780144e-001 -3.137897e-001 7.532830e-001
    outer loop
      vertex 7.778174e+000 -1.200000e+001 7.778174e+000
      vertex 5.000000e+000 -1.500000e+001 8.660254e+000
      vertex 7.071068e+000 -1.500000e+001 7.071068e+000
    endloop
  endfacet
  facet normal 5.780144e-001 -3.137897e-001 7.532830e-001
    outer loop
      vertex 7.778174e+000 -1.200000e+001 7.778174e+000
      vertex 5.500000e+000 -1.200000e+001 9.526279e+000
      vertex 5.000000e+000 -1.500000e+001 8.660254e+000
    endloop
  endfacet
  facet normal 3.633549e-001 -3.137897e-001 8.772168e-001
    outer loop
      vertex 5.500000e+000 -1.200000e+001 9.526279e+000
      vertex 2.588191e+000 -1.500000e+001 9.659258e+000
      vertex 5.000000e+000 -1.500000e+001 8.660254e+000
    endloop
  endfacet
  facet normal 3.633551e-001 -3.137899e-001 8.772166e-001
    outer loop
      vertex 5.500000e+000 -1.200000e+001 9.526279e+000
      vertex 2.847010e+000 -1.200000e+001 1.062518e+001
      vertex 2.588191e+000 -1.500000e+001 9.659258e+000
    endloop
  endfacet
  facet normal 1.239338e-001 -3.137899e-001 9.413694e-001
    outer loop
      vertex 2.847010e+000 -1.200000e+001 1.062518e+001
      vertex 7.549790e-007 -1.500000e+001 1.000000e+001
      vertex 2.588191e+000 -1.500000e+001 9.659258e+000
    endloop
  endfacet
  facet normal 1.239337e-001 -3.137898e-001 9.413694e-001
    outer loop
      vertex 2.847010e+000 -1.200000e+001 1.062518e+001
      vertex 8.304769e-007 -1.200000e+001 1.100000e+001
      vertex 7.549790e-007 -1.500000e+001 1.000000e+001
    endloop
  endfacet
  facet normal -1.239335e-001 -3.137898e-001 9.413695e-001
    outer loop
      vertex 8.304769e-007 -1.200000e+001 1.100000e+001
      vertex -2.588189e+000 -1.500000e+001 9.659259e+000
      vertex 7.549790e-007 -1.500000e+001 1.000000e+001
    endloop
  endfacet
  facet normal -1.239334e-001 -3.137899e-001 9.413695e-001
    outer loop
      vertex 8.304769e-007 -1.200000e+001 1.100000e+001
      vertex -2.847008e+000 -1.200000e+001 1.062519e+001
      vertex -2.588189e+000 -1.500000e+001 9.659259e+000
    endloop
  endfacet
  facet normal -3.633548e-001 -3.137899e-001 8.772168e-001
    outer loop
      vertex -2.847008e+000 -1.200000e+001 1.062519e+001
      vertex -4.999999e+000 -1.500000e+001 8.660255e+000
      vertex -2.588189e+000 -1.500000e+001 9.659259e+000
    endloop
  endfacet
  facet normal -3.633551e-001 -3.137897e-001 8.772167e-001
    outer loop
      vertex -2.847008e+000 -1.200000e+001 1.062519e+001
      vertex -5.499999e+000 -1.200000e+001 9.526280e+000
      vertex -4.999999e+000 -1.500000e+001 8.660255e+000
    endloop
  endfacet
  facet normal -5.780144e-001 -3.137897e-001 7.532831e-001
    outer loop
      vertex -5.499999e+000 -1.200000e+001 9.526280e+000
      vertex -7.071066e+000 -1.500000e+001 7.071070e+000
      vertex -4.999999e+000 -1.500000e+001 8.660255e+000
    endloop
  endfacet
  facet normal -5.780144e-001 -3.137898e-001 7.532831e-001
    outer loop
      vertex -5.499999e+000 -1.200000e+001 9.526280e+000
      vertex -7.778172e+000 -1.200000e+001 7.778176e+000
      vertex -7.071066e+000 -1.500000e+001 7.071070e+000
    endloop
  endfacet
  facet normal -7.532829e-001 -3.137898e-001 5.780146e-001
    outer loop
      vertex -7.778172e+000 -1.200000e+001 7.778176e+000
      vertex -8.660253e+000 -1.500000e+001 5.000002e+000
      vertex -7.071066e+000 -1.500000e+001 7.071070e+000
    endloop
  endfacet
  facet normal -7.532828e-001 -3.137898e-001 5.780146e-001
    outer loop
      vertex -7.778172e+000 -1.200000e+001 7.778176e+000
      vertex -9.526278e+000 -1.200000e+001 5.500003e+000
      vertex -8.660253e+000 -1.500000e+001 5.000002e+000
    endloop
  endfacet
  facet normal -8.772165e-001 -3.137898e-001 3.633555e-001
    outer loop
      vertex -9.526278e+000 -1.200000e+001 5.500003e+000
      vertex -9.659258e+000 -1.500000e+001 2.588194e+000
      vertex -8.660253e+000 -1.500000e+001 5.000002e+000
    endloop
  endfacet
  facet normal -8.772166e-001 -3.137897e-001 3.633554e-001
    outer loop
      vertex -9.526278e+000 -1.200000e+001 5.500003e+000
      vertex -1.062518e+001 -1.200000e+001 2.847013e+000
      vertex -9.659258e+000 -1.500000e+001 2.588194e+000
    endloop
  endfacet
  facet normal -9.413695e-001 -3.137897e-001 1.239338e-001
    outer loop
      vertex -1.062518e+001 -1.200000e+001 2.847013e+000
      vertex -1.000000e+001 -1.500000e+001 4.073016e-006
      vertex -9.659258e+000 -1.500000e+001 2.588194e+000
    endloop
  endfacet
  facet normal -9.413694e-001 -3.137898e-001 1.239340e-001
    outer loop
      vertex -1.062518e+001 -1.200000e+001 2.847013e+000
      vertex -1.100000e+001 -1.200000e+001 4.426657e-006
      vertex -1.000000e+001 -1.500000e+001 4.073016e-006
    endloop
  endfacet
  facet normal -9.413695e-001 -3.137898e-001 -1.239331e-001
    outer loop
      vertex -1.100000e+001 -1.200000e+001 4.426657e-006
      vertex -9.659260e+000 -1.500000e+001 -2.588186e+000
      vertex -1.000000e+001 -1.500000e+001 4.073016e-006
    endloop
  endfacet
  facet normal -9.413695e-001 -3.137896e-001 -1.239334e-001
    outer loop
      vertex -1.100000e+001 -1.200000e+001 4.426657e-006
      vertex -1.062519e+001 -1.200000e+001 -2.847005e+000
      vertex -9.659260e+000 -1.500000e+001 -2.588186e+000
    endloop
  endfacet
  facet normal -8.772168e-001 -3.137896e-001 -3.633548e-001
    outer loop
      vertex -1.062519e+001 -1.200000e+001 -2.847005e+000
      vertex -8.660256e+000 -1.500000e+001 -4.999996e+000
      vertex -9.659260e+000 -1.500000e+001 -2.588186e+000
    endloop
  endfacet
  facet normal -8.772169e-001 -3.137899e-001 -3.633545e-001
    outer loop
      vertex -1.062519e+001 -1.200000e+001 -2.847005e+000
      vertex -9.526282e+000 -1.200000e+001 -5.499995e+000
      vertex -8.660256e+000 -1.500000e+001 -4.999996e+000
    endloop
  endfacet
  facet normal -7.532833e-001 -3.137899e-001 -5.780140e-001
    outer loop
      vertex -9.526282e+000 -1.200000e+001 -5.499995e+000
      vertex -7.071072e+000 -1.500000e+001 -7.071064e+000
      vertex -8.660256e+000 -1.500000e+001 -4.999996e+000
    endloop
  endfacet
  facet normal -7.532834e-001 -3.137899e-001 -5.780139e-001
    outer loop
      vertex -9.526282e+000 -1.200000e+001 -5.499995e+000
      vertex -7.778179e+000 -1.200000e+001 -7.778171e+000
      vertex -7.071072e+000 -1.500000e+001 -7.071064e+000
    endloop
  endfacet
  facet normal -5.780146e-001 -3.137899e-001 -7.532829e-001
    outer loop
      vertex -7.778179e+000 -1.200000e+001 -7.778171e+000
      vertex -5.000003e+000 -1.500000e+001 -8.660252e+000
      vertex -7.071072e+000 -1.500000e+001 -7.071064e+000
    endloop
  endfacet
  facet normal -5.780146e-001 -3.137900e-001 -7.532828e-001
    outer loop
      vertex -7.778179e+000 -1.200000e+001 -7.778171e+000
      vertex -5.500003e+000 -1.200000e+001 -9.526278e+000
      vertex -5.000003e+000 -1.500000e+001 -8.660252e+000
    endloop
  endfacet
  facet normal -3.633555e-001 -3.137900e-001 -8.772164e-001
    outer loop
      vertex -5.500003e+000 -1.200000e+001 -9.526278e+000
      vertex -2.588194e+000 -1.500000e+001 -9.659257e+000
      vertex -5.000003e+000 -1.500000e+001 -8.660252e+000
    endloop
  endfacet
  facet normal -3.633554e-001 -3.137899e-001 -8.772165e-001
    outer loop
      vertex -5.500003e+000 -1.200000e+001 -9.526278e+000
      vertex -2.847014e+000 -1.200000e+001 -1.062518e+001
      vertex -2.588194e+000 -1.500000e+001 -9.659257e+000
    endloop
  endfacet
  facet normal -1.239341e-001 -3.137900e-001 -9.413693e-001
    outer loop
      vertex -2.847014e+000 -1.200000e+001 -1.062518e+001
      vertex -4.649123e-006 -1.500000e+001 -1.000000e+001
      vertex -2.588194e+000 -1.500000e+001 -9.659257e+000
    endloop
  endfacet
  facet normal -1.239340e-001 -3.137898e-001 -9.413694e-001
    outer loop
      vertex -2.847014e+000 -1.200000e+001 -1.062518e+001
      vertex -5.114035e-006 -1.200000e+001 -1.100000e+001
      vertex -4.649123e-006 -1.500000e+001 -1.000000e+001
    endloop
  endfacet
  facet normal 1.239331e-001 -3.137898e-001 -9.413695e-001
    outer loop
      vertex -5.114035e-006 -1.200000e+001 -1.100000e+001
      vertex 2.588185e+000 -1.500000e+001 -9.659260e+000
      vertex -4.649123e-006 -1.500000e+001 -1.000000e+001
    endloop
  endfacet
  facet normal 1.239334e-001 -3.137896e-001 -9.413695e-001
    outer loop
      vertex -5.114035e-006 -1.200000e+001 -1.100000e+001
      vertex 2.847004e+000 -1.200000e+001 -1.062519e+001
      vertex 2.588185e+000 -1.500000e+001 -9.659260e+000
    endloop
  endfacet
  facet normal 3.633545e-001 -3.137896e-001 -8.772169e-001
    outer loop
      vertex 2.847004e+000 -1.200000e+001 -1.062519e+001
      vertex 4.999995e+000 -1.500000e+001 -8.660257e+000
      vertex 2.588185e+000 -1.500000e+001 -9.659260e+000
    endloop
  endfacet
  facet normal 3.633545e-001 -3.137896e-001 -8.772169e-001
    outer loop
      vertex 2.847004e+000 -1.200000e+001 -1.062519e+001
      vertex 5.499994e+000 -1.200000e+001 -9.526282e+000
      vertex 4.999995e+000 -1.500000e+001 -8.660257e+000
    endloop
  endfacet
  facet normal 5.780139e-001 -3.137897e-001 -7.532834e-001
    outer loop
      vertex 5.499994e+000 -1.200000e+001 -9.526282e+000
      vertex 7.071064e+000 -1.500000e+001 -7.071073e+000
      vertex 4.999995e+000 -1.500000e+001 -8.660257e+000
    endloop
  endfacet
  facet normal 5.780138e-001 -3.137897e-001 -7.532835e-001
    outer loop
      vertex 5.499994e+000 -1.200000e+001 -9.526282e+000
      vertex 7.778170e+000 -1.200000e+001 -7.778180e+000
      vertex 7.071064e+000 -1.500000e+001 -7.071073e+000
    endloop
  endfacet
  facet normal 7.532828e-001 -3.137897e-001 -5.780148e-001
    outer loop
      vertex 7.778170e+000 -1.200000e+001 -7.778180e+000
      vertex 8.660251e+000 -1.500000e+001 -5.000006e+000
      vertex 7.071064e+000 -1.500000e+001 -7.071073e+000
    endloop
  endfacet
  facet normal 7.532826e-001 -3.137899e-001 -5.780149e-001
    outer loop
      vertex 7.778170e+000 -1.200000e+001 -7.778180e+000
      vertex 9.526276e+000 -1.200000e+001 -5.500007e+000
      vertex 8.660251e+000 -1.500000e+001 -5.000006e+000
    endloop
  endfacet
  facet normal 8.772165e-001 -3.137898e-001 -3.633555e-001
    outer loop
      vertex 9.526276e+000 -1.200000e+001 -5.500007e+000
      vertex 9.659256e+000 -1.500000e+001 -2.588197e+000
      vertex 8.660251e+000 -1.500000e+001 -5.000006e+000
    endloop
  endfacet
  facet normal 8.772164e-001 -3.137899e-001 -3.633556e-001
    outer loop
      vertex 9.526276e+000 -1.200000e+001 -5.500007e+000
      vertex 1.062518e+001 -1.200000e+001 -2.847017e+000
      vertex 9.659256e+000 -1.500000e+001 -2.588197e+000
    endloop
  endfacet
  facet normal 9.413693e-001 -3.137899e-001 -1.239341e-001
    outer loop
      vertex 1.062518e+001 -1.200000e+001 -2.847017e+000
      vertex 1.000000e+001 -1.500000e+001 1.788732e-007
      vertex 9.659256e+000 -1.500000e+001 -2.588197e+000
    endloop
  endfacet
  facet normal 9.413694e-001 -3.137898e-001 -1.239339e-001
    outer loop
      vertex 1.062518e+001 -1.200000e+001 -2.847017e+000
      vertex 1.100000e+001 -1.200000e+001 1.430986e-007
      vertex 1.000000e+001 -1.500000e+001 1.788732e-007
    endloop
  endfacet
  facet normal -0.000000e+000 -1.000000e+000 0.000000e+000
    outer loop
      vertex 0.000000e+000 -1.500000e+001 1.788732e-007
      vertex 1.000000e+001 -1.500000e+001 1.788732e-007
      vertex 9.659258e+000 -1.500000e+001 2.588191e+000
    endloop
  endfacet
  facet normal 0.000000e+000 -1.000000e+000 0.000000e+000
    outer loop
      vertex 0.000000e+000 -1.500000e+001 1.788732e-007
      vertex 9.659258e+000 -1.500000e+001 2.588191e+000
      vertex 8.660254e+000 -1.500000e+001 5.000000e+000
    endloop
  endfacet
  facet normal 0.000000e+000 -1.000000e+000 0.000000e+000
    outer loop
      vertex 0.000000e+000 -1.500000e+001 1.788732e-007
      vertex 8.660254e+000 -1.500000e+001 5.000000e+000
      vertex 7.071068e+000 -1.500000e+001 7.071068e+000
    endloop
  endfacet
  facet normal 0.000000e+000 -1.000000e+000 0.000000e+000
    outer loop
      vertex 0.000000e+000 -1.500000e+001 1.788732e-007
      vertex 7.071068e+000 -1.500000e+001 7.071068e+000
      vertex 5.000000e+000 -1.500000e+001 8.660254e+000
    endloop
  endfacet
  facet normal 0.000000e+000 -1.000000e+000 0.000000e+000
    outer loop
      vertex 0.000000e+000 -1.500000e+001 1.788732e-007
      vertex 5.000000e+000 -1.500000e+001 8.660254e+000
      vertex 2.588191e+000 -1.500000e+001 9.659258e+000
    endloop
  endfacet
  facet normal 0.000000e+000 -1.000000e+000 0.000000e+000
    outer loop
      vertex 0.000000e+000 -1.500000e+001 1.788732e-007
      vertex 2.588191e+000 -1.500000e+001 9.659258e+000
      vertex 7.549790e-007 -1.500000e+001 1.000000e+001
    endloop
  endfacet
  facet normal 0.000000e+000 -1.000000e+000 -0.000000e+000
    outer loop
      vertex 0.000000e+000 -1.500000e+001 1.788732e-007
      vertex 7.549790e-007 -1.500000e+001 1.000000e+001
      vertex -2.588189e+000 -1.500000e+001 9.659259e+000
    endloop
  endfacet
  facet normal 0.000000e+000 -1.000000e+000 0.000000e+000
    outer loop
      vertex 0.000000e+000 -1.500000e+001 1.788732e-007
      vertex -2.588189e+000 -1.500000e+001 9.659259e+000
      vertex -4.999999e+000 -1.500000e+001 8.660255e+000
    endloop
  endfacet
  facet normal 0.000000e+000 -1.000000e+000 0.000000e+000
    outer loop
      vertex 0.000000e+000 -1.500000e+001 1.788732e-007
      vertex -4.999999e+000 -1.500000e+001 8.660255e+000
      vertex -7.071066e+000 -1.500000e+001 7.071070e+000
    endloop
  endfacet
  facet normal 0.000000e+000 -1.000000e+000 0.000000e+000
    outer loop
      vertex 0.000000e+000 -1.500000e+001 1.788732e-007
      vertex -7.071066e+000 -1.500000e+001 7.071070e+000
      vertex -8.660253e+000 -1.500000e+001 5.000002e+000
    endloop
  endfacet
  facet normal 0.000000e+000 -1.000000e+000 0.000000e+000
    outer loop
      vertex 0.000000e+000 -1.500000e+001 1.788732e-007
      vertex -8.660253e+000 -1.500000e+001 5.000002e+000
      vertex -9.659258e+000 -1.500000e+001 2.588194e+000
    endloop
  endfacet
  facet normal 0.000000e+000 -1.000000e+000 0.000000e+000
    outer loop
      vertex 0.000000e+000 -1.500000e+001 1.788732e-007
      vertex -9.659258e+000 -1.500000e+001 2.588194e+000
      vertex -1.000000e+001 -1.500000e+001 4.073016e-006
    endloop
  endfacet
  facet normal 0.000000e+000 -1.000000e+000 0.000000e+000
    outer loop
      vertex 0.000000e+000 -1.500000e+001 1.788732e-007
      vertex -1.000000e+001 -1.500000e+001 4.073016e-006
      vertex -9.659260e+000 -1.500000e+001 -2.588186e+000
    endloop
  endfacet
  facet normal 0.000000e+000 -1.000000e+000 0.000000e+000
    outer loop
      vertex 0.000000e+000 -1.500000e+001 1.788732e-007
      vertex -9.659260e+000 -1.500000e+001 -2.588186e+000
      vertex -8.660256e+000 -1.500000e+001 -4.999996e+000
    endloop
  endfacet
  facet normal 0.000000e+000 -1.000000e+000 0.000000e+000
    outer loop
      vertex 0.000000e+000 -1.500000e+001 1.788732e-007
      vertex -8.660256e+000 -1.500000e+001 -4.999996e+000
      vertex -7.071072e+000 -1.500000e+001 -7.071064e+000
    endloop
  endfacet
  facet normal 0.000000e+000 -1.000000e+000 0.000000e+000
    outer loop
      vertex 0.000000e+000 -1.500000e+001 1.788732e-007
      vertex -7.071072e+000 -1.500000e+001 -7.071064e+000
      vertex -5.000003e+000 -1.500000e+001 -8.660252e+000
    endloop
  endfacet
  facet normal 0.000000e+000 -1.000000e+000 0.000000e+000
    outer loop
      vertex 0.000000e+000 -1.500000e+001 1.788732e-007
      vertex -5.000003e+000 -1.500000e+001 -8.660252e+000
      vertex -2.588194e+000 -1.500000e+001 -9.659257e+000
    endloop
  endfacet
  facet normal 0.000000e+000 -1.000000e+000 0.000000e+000
    outer loop
      vertex 0.000000e+000 -1.500000e+001 1.788732e-007
      vertex -2.588194e+000 -1.500000e+001 -9.659257e+000
      vertex -4.649123e-006 -1.500000e+001 -1.000000e+001
    endloop
  endfacet
  facet normal 0.000000e+000 -1.000000e+000 0.000000e+000
    outer loop
      vertex 0.000000e+000 -1.500000e+001 1.788732e-007
      vertex -4.649123e-006 -1.500000e+001 -1.000000e+001
      vertex 2.588185e+000 -1.500000e+001 -9.659260e+000
    endloop
  endfacet
  facet normal 0.000000e+000 -1.000000e+000 0.000000e+000
    outer loop
      vertex 0.000000e+000 -1.500000e+001 1.788732e-007
      vertex 2.588185e+000 -1.500000e+001 -9.659260e+000
      vertex 4.999995e+000 -1.500000e+001 -8.660257e+000
    endloop
  endfacet
  facet normal 0.000000e+000 -1.000000e+000 0.000000e+000
    outer loop
      vertex 0.000000e+000 -1.500000e+001 1.788732e-007
      vertex 4.999995e+000 -1.500000e+001 -8.660257e+000
      vertex 7.071064e+000 -1.500000e+001 -7.071073e+000
    endloop
  endfacet
  facet normal 0.000000e+000 -1.000000e+000 0.000000e+000
    outer loop
      vertex 0.000000e+000 -1.500000e+001 1.788732e-007
      vertex 7.071064e+000 -1.500000e+001 -7.071073e+000
      vertex 8.660251e+000 -1.500000e+001 -5.000006e+000
    endloop
  endfacet
  facet normal 0.000000e+000 -1.000000e+000 0.000000e+000
    outer loop
      vertex 0.000000e+000 -1.500000e+001 1.788732e-007
      vertex 8.660251e+000 -1.500000e+001 -5.000006e+000
      vertex 9.659256e+000 -1.500000e+001 -2.588197e+000
    endloop
  endfacet
  facet normal 0.000000e+000 -1.000000e+000 0.000000e+000
    outer loop
      vertex 0.000000e+000 -1.500000e+001 1.788732e-007
      vertex 9.659256e+000 -1.500000e+001 -2.588197e+000
      vertex 1.000000e+001 -1.500000e+001 1.788732e-007
    endloop
  endfacet
endsolid Object01
